<svg width="198" height="34" viewBox="0 0 198 34" fill="none" xmlns="http://www.w3.org/2000/svg">
<path d="M20.4075 19.6004H7.48704L11.0808 5.60683H16.7282L20.4075 19.6004ZM23.7018 32.5575H27.8518L19.9797 1.63333H7.87208L0 32.5575H4.14996L6.54581 23.5739H21.306L23.7018 32.5575ZM37.7347 32.5575H53.2221V28.584H41.8846V1.63333H37.7347V32.5575ZM91.513 32.5575H95.6629V1.63333H89.1599L80.0471 21.328H78.2502L69.1374 1.63333H62.6344V32.5575H66.7844V6.1683L75.4693 25.1288H82.7852L91.4702 6.21149L91.513 32.5575ZM125.525 19.6004H112.605L116.242 5.60683H121.889L125.525 19.6004ZM128.82 32.5575H132.97L125.098 1.63333H112.99L105.118 32.5575H109.268L111.664 23.5739H126.424L128.82 32.5575ZM150.04 5.60683H160.436V1.63333H135.451V5.60683H145.847V32.5575H149.997V5.60683H150.04ZM193.85 17.0954C193.85 24.3513 188.973 29.4478 182.042 29.4478C175.111 29.4478 170.234 24.3513 170.234 17.0954C170.234 9.83946 175.068 4.74302 182.042 4.74302C188.973 4.74302 193.85 9.83946 193.85 17.0954ZM198 17.0954C198 7.63676 191.283 0.769531 182.042 0.769531C172.801 0.769531 166.084 7.63676 166.084 17.0954C166.084 26.554 172.801 33.4213 182.042 33.4213C191.283 33.4213 198 26.554 198 17.0954Z" fill="black"/>
</svg>
