<svg width="196" height="41" viewBox="0 0 196 41" fill="none" xmlns="http://www.w3.org/2000/svg">
<g clip-path="url(#clip0_1080_53)">
<path d="M11.8034 17.1453L19.4073 9.36448L27.0152 17.1495L31.4397 12.6218L19.4073 0.308594L7.37891 12.6177L11.8034 17.1453Z" fill="black"/>
<path d="M8.6783 20.34L4.25391 15.8125L-0.170708 20.3403L4.25369 24.8678L8.6783 20.34Z" fill="black"/>
<path d="M11.806 23.535L19.4099 31.3159L27.0175 23.5312L31.4444 28.0563L31.4422 28.0589L19.4099 40.3718L7.38119 28.063L7.375 28.0567L11.806 23.535Z" fill="black"/>
<path d="M34.5617 24.8715L38.9863 20.3438L34.5619 15.8162L30.1373 20.344L34.5617 24.8715Z" fill="black"/>
<path d="M23.8977 20.3366H23.8996L19.4099 15.7422L16.0919 19.1375H16.0916L15.7106 19.5277L14.9242 20.3325L14.918 20.3388L14.9242 20.3454L19.4099 24.9357L23.8996 20.3413L23.9017 20.3388L23.8977 20.3366Z" fill="black"/>
<path d="M45.8828 10.0195H55.5058C57.8942 10.0195 59.7002 10.6468 60.9242 11.9012C61.8715 12.8728 62.3449 14.0769 62.3449 15.5133V15.5741C62.3449 16.1811 62.2716 16.7175 62.1241 17.1827C61.9769 17.6485 61.7802 18.0678 61.5344 18.4422C61.2891 18.8169 61.004 19.1457 60.6799 19.4286C60.3555 19.7121 60.007 19.9552 59.6337 20.1571C60.8342 20.6229 61.7793 21.2549 62.4683 22.0543C63.157 22.854 63.5018 23.9619 63.5018 25.3781V25.4385C63.5018 26.4101 63.3194 27.2598 62.9542 27.9886C62.5889 28.7168 62.0657 29.324 61.3844 29.8098C60.7031 30.2956 59.8839 30.6595 58.9265 30.9026C57.969 31.1453 56.908 31.2665 55.7436 31.2665H45.8828V10.0195ZM54.5437 18.6093C55.5525 18.6093 56.3535 18.4327 56.9463 18.0782C57.5395 17.7241 57.836 17.1523 57.836 16.3633V16.3026C57.836 15.5946 57.5787 15.0535 57.0648 14.6788C56.5505 14.3044 55.8089 14.1171 54.8403 14.1171H50.3317V18.6093H54.5437ZM55.76 27.1693C56.7685 27.1693 57.5589 26.9825 58.1329 26.6079C58.7063 26.2335 58.9933 25.6515 58.9933 24.8622V24.8018C58.9933 24.0936 58.7261 23.5322 58.1923 23.117C57.6582 22.7027 56.7982 22.4951 55.6116 22.4951H50.3317V27.1696L55.76 27.1693Z" fill="black"/>
<path d="M69.2344 10.0195H73.8027V31.2671H69.2344V10.0195Z" fill="black"/>
<path d="M80.7188 10.0195H84.9302L94.6595 23.1021V10.0195H99.1681V31.2671H95.2827L85.227 17.7599V31.2671H80.7188V10.0195Z" fill="black"/>
<path d="M113.001 9.86719H117.213L126.112 31.2664H121.336L119.437 26.5011H110.657L108.759 31.2664H104.102L113.001 9.86719ZM117.806 22.3725L115.047 15.4825L112.289 22.3725H117.806Z" fill="black"/>
<path d="M131.041 10.0195H135.253L144.982 23.1021V10.0195H149.491V31.2671H145.605L135.55 17.7599V31.2671H131.041V10.0195Z" fill="black"/>
<path d="M165.93 31.632C164.407 31.632 162.993 31.3485 161.688 30.7823C160.383 30.2162 159.256 29.4418 158.307 28.4601C157.357 27.4788 156.615 26.3202 156.082 24.9847C155.548 23.6489 155.281 22.2223 155.281 20.7046V20.6441C155.281 19.1264 155.548 17.7052 156.082 16.3795C156.616 15.0541 157.357 13.8905 158.307 12.8889C159.255 11.8873 160.393 11.0977 161.717 10.5211C163.042 9.94455 164.506 9.65625 166.108 9.65625C167.076 9.65625 167.961 9.73758 168.762 9.89898C169.563 10.0613 170.289 10.2835 170.942 10.5667C171.595 10.8503 172.198 11.1943 172.752 11.5987C173.305 12.0038 173.819 12.4487 174.294 12.9345L171.388 16.3643C170.576 15.6159 169.751 15.0285 168.911 14.6038C168.07 14.1791 167.126 13.9665 166.078 13.9665C165.208 13.9665 164.402 14.1386 163.661 14.4826C162.919 14.8266 162.281 15.3019 161.747 15.9089C161.214 16.5159 160.798 17.2194 160.501 18.0184C160.205 18.8182 160.057 19.6729 160.057 20.5834V20.6438C160.057 21.5543 160.205 22.4147 160.501 23.2236C160.798 24.0334 161.208 24.7414 161.733 25.3483C162.256 25.9553 162.889 26.4363 163.63 26.7905C164.373 27.1449 165.188 27.3215 166.078 27.3215C167.265 27.3215 168.267 27.099 169.088 26.6538C169.909 26.2091 170.725 25.6018 171.536 24.8325L174.443 27.8376C173.908 28.4247 173.354 28.951 172.782 29.4158C172.208 29.8817 171.58 30.281 170.898 30.6152C170.216 30.9488 169.469 31.2023 168.659 31.3738C167.847 31.5456 166.938 31.632 165.93 31.632Z" fill="black"/>
<path d="M179.818 10.0195H195.45V14.1782H184.327V18.4884H194.116V22.6467H184.327V27.1088H195.599V31.2671H179.818V10.0195Z" fill="black"/>
</g>
<defs>
<clipPath id="clip0_1080_53">
<rect width="195.452" height="40.0676" fill="white" transform="translate(0 0.308594)"/>
</clipPath>
</defs>
</svg>
