<svg width="198" height="42" viewBox="0 0 198 42" fill="none" xmlns="http://www.w3.org/2000/svg">
<g clip-path="url(#clip0_1080_27)">
<path d="M13.8237 21.4728C14.2381 21.765 14.2204 22.3512 14.5937 22.6463L14.7825 23.9448L13.8456 25.3242C12.6543 25.9487 10.8818 26.2232 9.77529 25.2172C9.14888 24.6517 8.98612 23.835 9.14888 23.0197L9.58928 21.8297C9.83682 21.6597 10.1706 21.6169 10.3402 21.326C10.9228 20.9497 11.6709 21.031 12.3398 20.8867C12.8403 21.0513 13.5926 20.7809 13.8237 21.4728Z" fill="black"/>
<path d="M10.7352 29.1127C11.1086 29.1127 11.3781 29.3874 11.7309 29.3228C12.2343 29.5107 12.17 30.1203 12.6924 30.2685C13.0891 31.0591 13.3366 31.9225 13.5459 32.7762C13.4009 33.2786 13.8208 33.5723 13.6717 34.0321L13.8208 34.1185C13.8441 34.5975 13.777 35.1424 13.591 35.6036C13.6717 36.4835 13.2327 37.215 12.8579 37.9685C12.5912 38.1358 12.464 38.6178 12.0907 38.5341C11.4177 38.7442 11.3576 39.7447 10.5451 39.6239C10.0254 40.0192 9.31282 39.7857 8.68641 39.8091C8.33353 39.6239 7.83296 39.6663 7.5854 39.3493C6.95488 39.0995 6.39549 38.6383 5.85524 38.177C5.64324 37.7145 5.16591 37.5059 5.10436 36.9857C5.28902 36.3557 4.89237 35.7888 5.05784 35.1643L4.9375 34.1184L5.33003 32.3162C6.00021 31.9579 5.80737 31.1468 6.47892 30.8942C6.89607 29.9334 7.89176 29.7193 8.66589 29.2375C8.96267 29.1799 9.31282 29.3445 9.54397 29.0729C9.96249 29.0084 10.3591 29.452 10.7352 29.1127Z" fill="black"/>
<path d="M44.753 1.23568C44.5848 4.18806 42.1666 6.17558 40.8892 8.66679C40.3531 10.1519 39.0565 11.0303 38.1387 12.3727C37.3031 13.2292 36.4893 14.1722 35.804 15.1344C35.9312 15.822 36.6561 16.0142 37.0746 16.5151C38.0129 17.0807 38.1155 18.1444 38.932 18.795C39.4093 18.795 39.4093 19.5087 39.9345 19.425C41.0396 20.6191 41.9369 21.8517 42.8491 23.1502C42.9968 23.6113 43.228 24.0684 43.6233 24.4047C44.355 25.4725 44.9595 26.6035 45.709 27.692C45.8171 28.9053 46.836 29.7193 47.1465 30.8544C47.6088 31.4597 47.7948 32.1721 48.2147 32.7787C48.8589 34.2021 49.2993 35.6845 50.0679 37.0502C50.2143 37.3618 50.0269 37.6761 49.8614 37.9066C49.5687 38.1374 49.343 37.716 49.0025 37.7774C47.2997 37.1516 45.6666 36.2526 44.0842 35.2904C42.4539 33.97 40.6608 33.0311 39.0565 31.6476C38.4301 31.4803 38.1811 30.7486 37.6012 30.4534C36.0543 29.4913 34.8206 28.1118 33.2587 27.2114C32.5516 26.6665 31.8404 26.1463 31.1306 25.5795C30.5876 25.5137 30.4043 24.8863 29.8805 24.6996C28.7111 23.9886 27.6511 23.0017 26.4625 22.3319C26.3559 22.5023 26.4625 22.7506 26.3559 22.9194C25.5626 23.6949 25.7746 24.8863 25.2042 25.7455C25.1878 26.9795 24.3303 27.884 23.9801 28.9669C22.9981 30.7266 22.1406 32.5288 21.1202 34.2637C19.7621 36.0659 19.0358 38.2414 17.1169 39.6853C16.6998 40.2083 16.2211 40.4787 15.7 40.8163C15.4688 40.7517 15.1351 40.7891 15.0722 40.502C14.8424 40.0641 15.1351 39.3902 14.8233 38.9908C15.09 38.3868 14.9245 37.6978 15.0517 37.0266L14.9491 36.7356C14.9696 35.8132 15.4265 35.0391 15.2391 34.0961C15.4894 33.5114 15.5933 32.8608 15.6521 32.2129C15.9517 31.4168 16.2019 30.5576 16.284 29.6998C16.5521 29.1974 16.656 28.5509 16.5945 27.9635C16.801 27.4227 16.8448 26.7693 17.411 26.3727C17.4917 26.0143 17.411 25.6617 17.4698 25.2856C18.0347 23.5671 18.7226 21.9132 19.1589 20.1591C19.1589 20.0326 19.0359 19.9918 18.9538 19.9669C17.7228 19.905 16.5753 20.1591 15.4265 19.8447C13.5472 19.8213 11.6516 19.5704 9.86259 19.1941C9.12949 19.0474 8.25279 19.131 7.58671 18.7123C7.14767 18.7318 6.64298 18.8166 6.23267 18.5874C5.37374 18.166 4.33155 18.2306 3.47536 17.7693C2.8298 17.8573 2.37298 17.4343 1.78486 17.3727C1.22273 17.4166 0.910896 16.9321 0.515625 16.6178V16.4326C1.55782 15.0064 3.22643 14.6112 4.72818 14.0663C6.20942 13.6051 7.85889 13.5653 9.40167 13.2482C10.381 13.0821 11.4423 13.3567 12.4229 13.1836C14.1955 13.2287 15.9065 13.5198 17.6599 13.5653C18.2453 13.6478 18.7842 13.9209 19.3696 13.896L19.3477 13.6474L17.6982 11.3881C17.08 9.92222 15.9312 8.68827 15.5304 7.13726C15.157 6.67745 15.5099 5.98979 15.2158 5.48605C15.198 5.25416 15.3868 5.08941 15.4894 4.89861C15.8464 4.75309 16.2403 5.00442 16.5945 4.77369C17.6599 5.02504 18.6392 5.40097 19.7019 5.60823C20.8071 6.05018 21.9354 6.49082 22.9147 7.22376C24.1443 8.09945 25.6283 8.66632 26.5829 10.0252C26.8373 10.2571 27.2299 10.2983 27.5608 10.2104C27.8549 10.1715 27.9205 9.81645 28.1927 9.71214C29.4825 8.89544 30.9432 8.4384 32.2193 7.5366C32.7322 7.01092 33.5733 6.94915 33.8811 6.23816C34.2818 6.05024 34.6388 5.79896 35.0545 5.69325C35.7863 5.17305 36.5139 4.60617 37.3031 4.18752C37.7243 4.14356 38.0553 3.91166 38.3904 3.68655C39.6829 2.97419 41.0397 2.38808 42.2679 1.57277C42.5401 0.839834 43.3511 1.00594 43.9365 0.839844C44.2278 0.902874 44.6258 0.859834 44.753 1.23568Z" fill="black"/>
<path d="M59.5645 35.8728H197.494V35.332H59.5645V35.8728Z" fill="black"/>
<path d="M59.5645 36.3843H197.494V35.8477H59.5645V36.3843Z" fill="black"/>
<path d="M161.03 27.187C160.492 27.522 159.829 27.758 158.791 27.758C157.392 27.758 156.189 26.5844 156.189 25.0458C156.189 22.9032 157.79 22.0989 159.326 22.0989C159.925 22.0989 160.558 22.1965 160.926 22.2635L161.03 27.187ZM155.218 19.0147C156.054 17.7767 156.89 17.2428 158.525 17.2428C160.793 17.2428 160.926 19.2481 160.926 21.0571C160.459 21.0571 159.893 20.9567 159.357 20.9567C156.321 20.9567 152.949 22.332 152.949 25.8815C152.949 28.359 155.185 29.7672 157.456 29.7672C158.923 29.7672 159.993 28.9615 161.128 28.127C161.526 28.9615 162.529 29.5998 163.803 29.7672L166.301 27.7578L165.8 27.2568C165.565 27.3214 165.267 27.3914 165.099 27.3914C164.364 27.3914 164.102 26.9522 164.102 25.4136V24.24C164.135 22.3322 164.229 20.5917 164.229 19.3852C164.229 16.0361 161.694 15.2305 158.725 15.2305C157.156 15.2305 155.823 15.4336 154.418 15.833V19.0147L155.218 19.0147Z" fill="black"/>
<path d="M81.022 10.5515H79.5872C78.5272 7.32042 75.1695 6.04942 72.2248 6.04942C66.2684 6.04942 63.8038 10.8575 63.8038 16.6292C63.8038 26.3168 70.7887 27.9639 73.6281 27.9639C76.4045 27.9639 78.8979 26.7629 80.4092 24.3581L81.4692 24.8056L80.4092 28.6186C77.6697 29.1347 75.9573 29.4078 73.7348 29.4078C63.5302 29.4078 59.0469 23.0885 59.0469 16.9037C59.0469 9.82813 64.4904 4.60547 72.1619 4.60547C76.6056 4.60547 78.318 5.36178 80.7484 5.98216L81.022 10.5515Z" fill="black"/>
<path d="M84.9033 18.9981V15.811C86.3039 15.4102 87.6401 15.207 89.2157 15.207C92.1891 15.207 94.7304 16.0141 94.7304 19.3673C94.7304 20.5779 94.6305 22.321 94.5949 24.233V25.408C94.5949 26.9521 94.863 27.3886 95.6029 27.3886C95.767 27.3886 96.0666 27.3213 96.3018 27.2513L96.8038 27.7563L94.2981 29.7699C93.0234 29.6053 92.0223 28.9628 91.6174 28.1228C90.4849 28.9628 89.4127 29.7699 87.9451 29.7699C85.672 29.7699 83.4316 28.3589 83.4316 25.8732C83.4316 22.321 86.8085 20.947 89.8503 20.947C90.3824 20.947 90.9527 21.0431 91.4177 21.0431C91.4177 19.2341 91.2851 17.2219 89.0133 17.2219C87.3734 17.2219 86.5391 17.7572 85.702 18.998L84.9033 18.9981ZM91.4177 22.2525C91.0539 22.1824 90.4166 22.0852 89.812 22.0852C88.2775 22.0852 86.6718 22.8936 86.6718 25.0375C86.6718 26.5817 87.8808 27.7566 89.2814 27.7566C90.3167 27.7566 90.9856 27.522 91.5244 27.1883L91.4177 22.2525Z" fill="black"/>
<path d="M102.247 15.2416C102.247 16.6567 102.382 19.6063 102.382 22.357V27.257C102.382 28.3976 102.92 28.5637 103.685 28.7682V29.4394C102.684 29.4394 101.683 29.3351 100.672 29.3351C99.7752 29.3351 98.8739 29.4025 97.9671 29.4394V28.7682C98.7713 28.5636 99.1378 28.3974 99.1378 27.257V23.0968C99.1378 20.6783 98.9422 19.3346 98.6701 18.6318C98.4034 17.9634 98.0683 17.73 97.2695 17.5914V16.9216C98.8068 16.5551 100.581 15.9169 101.581 15.2416H102.247ZM100.611 9.57422C101.581 9.57422 102.449 10.2784 102.449 11.2872C102.449 12.2919 101.581 12.9947 100.611 12.9947C99.6412 12.9947 98.7713 12.2919 98.7713 11.2872C98.7713 10.2784 99.6412 9.57422 100.611 9.57422Z" fill="black"/>
<path d="M105.354 28.7692C106.421 28.6019 107.124 27.7658 107.561 27.1948L110.804 23.0332L106.962 17.7996C106.321 16.9596 106.086 16.7263 105.117 16.287V15.6172C106.122 15.6483 107.159 15.7203 108.162 15.7203C109.164 15.7203 110.17 15.6503 111.168 15.6172V16.287C110.769 16.4859 110.468 16.5586 110.468 17.0598C110.468 17.2932 110.568 17.731 110.867 18.1345L112.709 20.6491L114.344 18.4667C114.678 18 114.848 17.5965 114.848 17.3617C114.848 16.7263 114.445 16.4861 113.912 16.287V15.6172C114.812 15.6483 115.681 15.7203 116.584 15.7203C117.454 15.7203 118.359 15.6503 119.229 15.6172V16.287C117.922 16.5905 117.221 17.3947 116.488 18.3363L113.644 21.9599L117.256 26.9917C117.755 27.6629 118.522 28.5015 119.359 28.7692V29.4417C118.359 29.4067 117.386 29.3402 116.386 29.3402C115.381 29.3402 114.409 29.4059 113.41 29.4417V28.7692C113.776 28.7342 114.078 28.3697 114.078 28.0293C114.078 27.8317 113.812 27.2951 113.541 26.8902L111.737 24.3083L109.93 26.7542C109.725 27.0589 109.467 27.6986 109.467 27.9992C109.467 28.5317 109.725 28.7033 110.17 28.7692V29.4417C109.298 29.4067 108.391 29.3402 107.523 29.3402C106.793 29.3402 106.086 29.4059 105.354 29.4417V28.7692Z" fill="black"/>
<path d="M121.728 18.9981V15.811C123.133 15.4102 124.466 15.207 126.042 15.207C129.018 15.207 131.561 16.0141 131.561 19.3673C131.561 20.5779 131.457 22.321 131.424 24.233V25.408C131.424 26.9521 131.692 27.3886 132.427 27.3886C132.595 27.3886 132.893 27.3213 133.13 27.2513L133.632 27.7563L131.118 29.7699C129.854 29.6053 128.853 28.9628 128.449 28.1228C127.311 28.9628 126.24 29.7699 124.776 29.7699C122.5 29.7699 120.254 28.3589 120.254 25.8732C120.254 22.321 123.629 20.947 126.675 20.947C127.213 20.947 127.779 21.0431 128.248 21.0431C128.248 19.2341 128.117 17.2219 125.842 17.2219C124.201 17.2219 123.365 17.7572 122.533 18.998L121.728 18.9981ZM128.248 22.2525C127.883 22.1824 127.248 22.0852 126.644 22.0852C125.104 22.0852 123.502 22.8936 123.502 25.0375C123.502 26.5817 124.709 27.7566 126.108 27.7566C127.143 27.7566 127.819 27.522 128.352 27.1883L128.248 22.2525Z" fill="black"/>
<path d="M140.339 7.93114C140.339 7.29562 140.737 7.26129 141.671 7.26129C145.278 7.26129 146.646 9.20624 146.646 12.1531C146.646 15.0657 144.641 16.9091 141.671 16.9091C141.238 16.9091 140.766 16.878 140.174 16.8418L140.339 7.93114ZM136.597 26.5871C136.597 28.0283 136.166 28.5293 134.693 28.6967V29.3007H140.436C140.903 29.3007 141.373 29.3357 141.808 29.368C142.276 29.3991 142.742 29.431 143.176 29.431C146.814 29.431 151.12 28.0283 151.12 23.7088C151.12 20.2238 149.013 18.4477 145.874 17.5775V17.5102C148.381 16.7059 150.716 14.8639 150.716 12.0171C150.716 7.662 146.24 6.05469 142.506 6.05469C141.706 6.05469 140.938 6.1893 139.437 6.1893C138.102 6.1893 136.734 6.05469 135.064 6.05469V6.79317C135.965 6.92779 136.503 7.22691 136.503 8.50063C136.503 11.5176 136.597 15.7697 136.597 19.7886L136.597 26.5871ZM140.174 18.2817C140.87 18.2817 141.403 18.2467 141.971 18.2467C145.173 18.2467 147.045 20.5251 147.045 23.5736C147.045 26.1513 145.344 28.228 142.472 28.228C140.405 28.228 140.174 27.893 140.174 26.0854V18.2817Z" fill="black"/>
<path d="M166.848 17.5539C167.85 17.5539 168.315 18.1221 168.315 19.0939C168.315 20.1645 168.483 21.9763 168.483 23.9172V27.2003C168.483 28.3396 168.083 28.47 167.248 28.7719V29.4417C168.185 29.4417 169.147 29.3429 170.084 29.3429C171.051 29.3429 171.989 29.4087 172.956 29.4417V28.7719C172.057 28.6715 171.718 28.4042 171.718 27.2003V24.4538C171.718 21.8404 171.788 19.9655 171.788 18.6931C171.788 17.4537 173.921 17.1188 174.589 17.1188C176.959 17.1188 177.326 19.5963 177.326 21.4053V27.2003C177.326 28.3396 177.056 28.5743 176.122 28.7719V29.4417C177.196 29.4417 178.227 29.3429 179.293 29.3429C180.132 29.3429 180.931 29.4087 181.767 29.4417V28.7719C180.831 28.5085 180.563 28.2723 180.563 27.2003V20.1C180.563 17.2533 179.261 15.2754 175.958 15.2754C174.555 15.2754 173.054 16.1141 171.886 16.8841C171.922 16.3145 171.922 15.7805 171.952 15.2109H171.286C170.021 16.0111 168.819 16.5162 166.848 16.8841L166.848 17.5539Z" fill="black"/>
<path d="M197.476 28.737C196.478 28.4378 195.276 27.3658 194.843 26.8634L189.799 20.9339L192.371 18.2203C193.169 17.383 194.273 16.613 195.474 16.2767V15.6097C194.642 15.6743 193.807 15.71 192.971 15.71C192.072 15.71 191.133 15.675 190.233 15.6097V16.2767C190.536 16.4153 190.836 16.8162 190.836 17.1497C190.836 17.5201 190.668 18.0213 189.966 18.7241L187.231 21.4363V5.66406H186.496C185.295 6.56582 183.731 7.26858 182.057 7.70508V8.47369C182.891 8.47369 183.658 9.27939 183.731 10.652C183.828 11.9257 183.997 14.4375 183.997 16.3811V27.2312C183.997 27.9669 183.731 28.5695 182.727 28.737V29.4081C183.627 29.3424 184.495 29.3078 185.394 29.3078C186.396 29.3078 187.365 29.4081 188.365 29.4081V28.737C187.564 28.5697 187.231 28.1715 187.231 27.164V22.5728H187.299L190.735 26.361C191.304 26.9952 191.703 27.7707 191.703 28.1344C191.703 28.4694 191.467 28.737 191.17 28.737V29.4081C192.308 29.4081 193.437 29.3078 194.571 29.3078C195.541 29.3078 196.511 29.3735 197.476 29.4081V28.737Z" fill="black"/>
<path d="M59.5645 36.3843H197.494V35.8477H59.5645V36.3843Z" fill="black"/>
</g>
<defs>
<clipPath id="clip0_1080_27">
<rect width="198" height="41.0059" fill="white" transform="translate(0 0.324219)"/>
</clipPath>
</defs>
</svg>
