<svg width="206" height="52" viewBox="0 0 206 52" fill="none" xmlns="http://www.w3.org/2000/svg">
<path d="M24.4618 47.3151C24.3445 47.2746 21.5539 46.2963 18.3054 44.0231C16.3949 42.6863 14.7265 41.1777 13.3464 39.5391C11.6143 37.4829 10.3343 35.2158 9.5419 32.801C8.72673 30.3162 8.25822 27.4853 8.14978 24.3872C8.06321 21.9186 8.20374 19.2747 8.56715 16.5286C9.18554 11.8569 10.2536 8.45004 10.2643 8.41628L10.3243 8.22694L10.4957 8.13508C10.5611 8.09986 12.1269 7.26588 14.6545 6.42155C16.1368 5.9265 17.6426 5.53166 19.1305 5.24791C20.8276 4.92442 22.5058 4.74542 24.1266 4.71492V4.7102L25.0985 4.71002V4.71492C26.7191 4.74542 28.3974 4.92442 30.0946 5.24791C31.5823 5.53166 33.0883 5.9265 34.5705 6.42155C37.0982 7.26588 38.664 8.09986 38.7294 8.13508L38.9008 8.22694L38.9608 8.41628C38.9713 8.45004 40.0395 11.8569 40.6577 16.5286C41.0213 19.2747 41.1617 21.9186 41.0753 24.3872C40.9667 27.4853 40.4983 30.3162 39.683 32.801C38.8908 35.2158 37.6108 37.4829 35.8787 39.5391C34.4986 41.1777 32.8302 42.6863 30.9196 44.0231C27.671 46.2963 24.8804 47.2746 24.7631 47.3151L24.6125 47.3672L24.4618 47.3151Z" fill="#191919"/>
<path d="M24.6297 4.22428H24.6184H24.6171H24.6157H24.6045H23.6577V4.24189C22.156 4.29563 20.6099 4.47263 19.0489 4.77035C17.5409 5.0579 16.0148 5.45801 14.513 5.9596C11.9481 6.81627 10.3485 7.66858 10.2814 7.70435L9.93866 7.88824L9.81876 8.26675C9.80765 8.30233 9.53963 9.15301 9.19332 10.5921C8.87575 11.9122 8.42858 14.0028 8.10273 16.4642C7.73561 19.2379 7.59384 21.91 7.6813 24.4063C7.79151 27.5516 8.26812 30.429 9.0981 32.9585C9.91027 35.4336 11.2207 37.7556 12.9934 39.86C14.4003 41.5303 16.0996 43.0672 18.044 44.4276C21.3457 46.738 24.1959 47.7372 24.3156 47.7786L24.6171 47.8828L24.9185 47.7786C25.0382 47.7372 27.8886 46.738 31.1902 44.4276C33.1347 43.0672 34.8338 41.5303 36.2409 39.86C38.0134 37.7556 39.324 35.4336 40.136 32.9585C40.966 30.429 41.4426 27.5516 41.5528 24.4063C41.6403 21.91 41.4985 19.2379 41.1314 16.4642C40.8055 14.0028 40.3585 11.9122 40.0408 10.5921C39.6945 9.15301 39.4266 8.30233 39.4154 8.26675L39.2956 7.88824L38.9527 7.70435C38.8858 7.66858 37.286 6.81627 34.7211 5.9596C33.2193 5.45801 31.6934 5.0579 30.1853 4.77035C28.6242 4.47263 27.0782 4.29563 25.5764 4.24189V4.22447L24.6297 4.22428ZM24.6297 5.19896C32.2471 5.2064 38.5152 8.56864 38.5152 8.56864C38.5152 8.56864 42.749 21.9486 39.2392 32.6466C35.8525 42.9693 24.6171 46.8546 24.6171 46.8546C24.6171 46.8546 13.3818 42.9693 9.99509 32.6466C6.48509 21.9486 10.7189 8.56864 10.7189 8.56864C10.7189 8.56864 16.9871 5.2064 24.6045 5.19896C24.6087 5.19896 24.6129 5.19896 24.6171 5.19896C24.6212 5.19896 24.6254 5.19896 24.6297 5.19896" fill="black"/>
<path d="M36.5934 10.2727C33.8748 8.97309 30.7277 8.35532 28.3508 8.06196C26.1975 7.796 24.6257 7.796 24.6257 7.796C24.6257 7.796 23.0539 7.796 20.9007 8.06196C18.5236 8.35532 15.3767 8.97309 12.6579 10.2727C12.6579 10.2727 9.92338 20.8135 11.4008 29.0293C11.6972 30.6784 12.1635 32.2338 12.8555 33.5917C13.9446 35.7276 15.2711 37.466 16.6355 38.8678C20.4583 42.7974 24.6257 44.0859 24.6257 44.0859C24.6257 44.0859 28.7932 42.7974 32.6158 38.8678C33.9803 37.466 35.3068 35.7276 36.3958 33.5917C37.0879 32.2338 37.5543 30.6784 37.8505 29.0293C39.328 20.8135 36.5934 10.2727 36.5934 10.2727Z" fill="#E5E5E5"/>
<path d="M35.955 17.4339C34.0339 11.8349 30.9009 7.27036 30.9009 7.27036L24.6238 5.73038V5.72421L24.6113 5.72729L24.5989 5.72421V5.73038L18.3218 7.27036C18.3218 7.27036 15.1888 11.8349 13.2677 17.4339C11.3464 23.0328 10.8145 27.4453 10.8145 27.4453V31.3401L12.7061 36.574L19.445 43.2078L24.624 44.9727L29.7777 43.2078L36.5166 36.574L38.4083 31.3401V27.4453C38.4083 27.4453 37.8761 23.0328 35.955 17.4339" fill="#191919"/>
<path d="M36.8508 28.7034C34.8273 31.632 31.1456 33.9616 31.0881 33.9976C33.5115 31.563 35.8459 27.608 35.8459 27.608C35.7276 24.352 34.4567 18.966 31.4645 12.5759C30.4593 10.429 29.3555 9.01029 28.3329 8.07283C26.4529 6.34896 24.8476 6.25202 24.6329 6.24693V6.24657C24.6329 6.24657 24.6286 6.24657 24.6205 6.24675C24.6124 6.24657 24.6082 6.24657 24.6082 6.24657V6.24693C24.3934 6.25202 22.7881 6.34896 20.9081 8.07283C19.8856 9.01029 18.7817 10.429 17.7765 12.5759C14.7844 18.966 13.5134 24.352 13.3951 27.608C13.3951 27.608 15.7295 31.563 18.1528 33.9976C18.0955 33.9616 14.4137 31.632 12.3902 28.7034L11.4082 29.0402C11.7046 30.6892 12.1708 32.2448 12.8629 33.6025C13.9519 35.7385 15.2786 37.4771 16.6429 38.8789C17.8532 38.5187 20.0219 37.6425 20.0451 35.9761C20.0749 33.8765 16.6168 30.4683 15.8778 27.8515C15.8778 27.8515 19.1348 15.0455 24.5828 15.0408L24.6016 15.0415V15.0431L24.6205 15.0424L24.6394 15.0431V15.0415L24.6582 15.0408C30.1063 15.0455 33.3632 27.8515 33.3632 27.8515C32.6242 30.4683 29.1661 33.8765 29.1957 35.9761C29.2192 37.6425 31.3878 38.5187 32.5981 38.8789C33.9624 37.4771 35.2891 35.7385 36.3779 33.6025C37.0702 32.2448 37.5364 30.6892 37.8328 29.0402L36.8508 28.7034Z" fill="#E5E5E5"/>
<path d="M19.9199 23.2111C19.9199 23.2111 20.38 24.238 20.5898 24.3201C20.9708 24.4688 23.4142 24.4688 23.4142 24.4688C23.4142 24.4688 21.7721 23.1435 21.089 23.0488C20.4059 22.9542 19.9199 23.2111 19.9199 23.2111Z" fill="#E5E5E5"/>
<path d="M29.3049 23.2111C29.3049 23.2111 28.8448 24.238 28.635 24.3201C28.2539 24.4688 25.8105 24.4688 25.8105 24.4688C25.8105 24.4688 27.4527 23.1435 28.1358 23.0488C28.8189 22.9542 29.3049 23.2111 29.3049 23.2111Z" fill="#E5E5E5"/>
<path d="M52.2263 10.1692C52.064 10.4185 51.3498 13.8772 51.3498 14.3758C51.3498 14.5004 52.0965 14.625 52.973 14.625C54.1417 14.625 54.5962 14.7497 54.5962 15.0613C54.5962 15.2794 53.882 19.4548 52.973 24.2845C52.0965 29.1142 51.2848 33.757 51.155 34.5983L50.9277 36.1562L53.3301 36.0628L55.7 35.9693L57.3881 26.7772C58.2972 21.7294 59.2062 16.962 59.3685 16.183L59.6607 14.7808L61.3488 14.6873C63.1993 14.5939 63.0045 14.812 63.6213 11.7584C63.7836 10.9482 63.8486 10.2004 63.7512 10.1069C63.4915 9.85763 52.3886 9.91995 52.2263 10.1692Z" fill="black"/>
<path d="M64.8536 10.7969C64.6588 11.8252 63.9121 15.7201 61.8019 27.3426C60.7306 33.1695 60.341 35.9115 60.5683 36.005C60.7955 36.0985 64.1393 36.0985 68.0351 36.0673L75.1448 35.9738L75.7291 34.0419C76.0213 32.9825 76.346 31.9854 76.4433 31.8608C76.5407 31.705 77.2225 31.6427 77.9692 31.705L79.3327 31.8296L79.2028 33.9173L79.1054 35.9738L81.313 36.0673C82.8713 36.1296 83.5206 36.0361 83.618 35.7557C83.7154 35.5376 83.9102 31.4869 84.1374 26.7818C84.3322 22.0767 84.5594 16.3433 84.6893 14.0687L84.8841 9.95564H82.0922C79.7547 9.95564 79.2353 10.0491 79.008 10.4853C78.8457 10.7969 77.9692 13.4143 77.0602 16.3433C76.1512 19.2412 74.5279 24.4448 73.4242 27.8412C72.3528 31.2687 71.4763 34.2289 71.4763 34.447C71.4763 34.6651 71.314 34.9456 71.1192 35.0702C70.827 35.226 70.7945 34.8832 70.9569 33.7927C71.0867 32.9825 71.2815 32.11 71.3789 31.8919C71.5088 31.5803 70.9244 31.4557 68.8142 31.3934L66.1197 31.2999L66.2171 30.0535C66.282 29.368 66.5092 27.9658 66.7365 26.9376L67.1261 25.068L69.2038 24.9122C71.5088 24.7252 71.3464 24.9434 71.8983 21.3912L72.0931 20.2383H70.0479H68.0026L68.4246 17.652C68.6844 16.2499 68.8791 15.0035 68.8791 14.8788C68.8791 14.7542 70.0803 14.6296 71.5412 14.5672L74.2358 14.4738L74.5929 12.9158C75.372 9.70636 75.7616 9.95564 70.0479 9.95564H65.0483L64.8536 10.7969ZM80.0794 22.1702C79.7547 26.7818 79.6898 27.0934 78.7808 27.0934C78.3263 27.0934 77.9692 26.9064 77.9692 26.6883C77.9692 26.1274 79.982 19.3035 80.1443 19.3035C80.2092 19.3035 80.2092 20.6122 80.0794 22.1702Z" fill="black"/>
<path d="M89.1693 10.329C89.1043 10.5471 88.7472 12.479 88.3577 14.629C87.9681 16.779 87.2214 20.8921 86.6695 23.8211C84.7541 34.3842 84.5269 35.6617 84.6892 35.8798C84.7541 36.0356 85.6631 36.1291 86.7344 36.1291H88.6174L89.2991 32.6081C89.6562 30.7073 90.2081 27.7783 90.4678 26.158C90.76 24.5378 91.1171 23.0421 91.247 22.7928C91.4093 22.5435 91.4418 25.4725 91.3444 29.274L91.1821 36.1914L92.0586 36.0668C92.9027 35.9733 93.0325 35.6929 95.0453 29.7414C97.6425 22.045 97.4477 22.6059 97.61 22.7617C97.6749 22.8551 97.3178 25.2856 96.7659 28.1834C96.2465 31.1124 95.7271 34.0726 95.5972 34.8204L95.4024 36.1291H97.4152C99.1683 36.1291 99.428 36.0356 99.7202 35.4124C99.8825 35.0385 100.629 31.3617 101.376 27.2486C102.123 23.1356 103.097 17.6203 103.583 15.0029C104.07 12.3855 104.395 10.2044 104.33 10.1109C104.038 9.83046 99.1034 9.9551 98.9411 10.2355C98.8437 10.3913 97.8697 13.1645 96.7984 16.374L94.8505 22.2631L95.0453 16.0935L95.2401 9.9551H92.2859C90.1757 9.9551 89.2667 10.0797 89.1693 10.329Z" fill="black"/>
<path d="M182.022 10.2042C179.197 11.139 178.321 12.9774 176.827 21.3281C175.074 30.9876 174.912 32.3274 175.334 33.7919C175.821 35.5992 176.925 36.1289 180.139 36.1289C183.515 36.1289 184.911 35.4122 186.145 33.013C186.859 31.6108 188.027 26.5941 188.027 24.9115C188.027 24.7245 187.118 24.5999 185.917 24.5999C183.547 24.5999 183.775 24.3195 183.158 28.0274C182.573 31.455 181.892 32.4209 180.431 31.8912C179.717 31.6419 179.749 31.2369 180.885 24.9115C182.768 14.1615 182.866 13.881 184.424 14.068C185.171 14.1615 185.268 14.2861 185.268 15.4078C185.268 16.0933 185.138 17.3397 185.008 18.1499L184.749 19.6455L186.956 19.5521L189.131 19.4586L189.586 17.1216C190.138 13.9745 189.975 11.6687 189.034 10.7962C188.449 10.2042 187.93 10.1107 185.495 10.0484C183.937 10.0172 182.379 10.0796 182.022 10.2042Z" fill="black"/>
<path d="M195.006 10.3891C192.539 11.4797 191.273 14.1283 191.273 18.2102C191.273 20.2355 191.663 21.0457 194.682 25.1276C195.851 26.7167 195.98 27.0906 195.915 28.5551C195.818 30.8921 195.234 31.9203 194.033 31.9203C193.091 31.9203 193.059 31.8892 193.059 30.3624C193.059 29.4899 193.188 28.2747 193.318 27.6203L193.578 26.4674H191.338H189.098L188.741 29.0225C188.059 33.6964 188.189 34.4754 189.974 35.6283C191.176 36.3761 195.136 36.3138 196.792 35.5037C199.097 34.3819 200.525 31.7022 200.915 27.8696C201.142 25.3768 200.72 24.2239 198.48 21.2326C196.37 18.4283 195.721 16.8703 196.013 15.3746C196.24 14.1283 196.824 13.5985 197.831 13.7543C198.642 13.8478 198.772 14.658 198.318 16.8703L198.058 18.0544H200.136C202.636 18.0544 202.603 18.0855 202.863 14.3152C203.025 11.9783 202.96 11.5732 202.376 10.8877C201.792 10.171 201.467 10.1087 198.837 10.0152C196.922 9.98404 195.656 10.0775 195.006 10.3891Z" fill="black"/>
<path d="M109.526 12.5091C109.331 13.7555 108.779 16.7468 108.357 19.1461C107.903 21.5454 107.091 25.8765 106.572 28.8055C106.052 31.7034 105.533 34.4765 105.403 34.9439L105.176 35.8164H107.481C108.747 35.8164 109.786 35.7541 109.786 35.6918C109.786 35.3802 111.149 27.7149 111.441 26.3751L111.799 24.9106H113.227C114.006 24.9106 114.655 24.9729 114.655 25.0664C114.655 25.1599 114.298 27.1541 113.844 29.5222C113.389 31.8591 112.967 34.2584 112.87 34.7881L112.675 35.8164H114.915H117.155L117.675 32.9186C117.967 31.3606 118.584 27.9331 119.038 25.378C119.525 22.7917 120.239 18.8033 120.661 16.4975C121.083 14.1917 121.538 11.8236 121.668 11.2627L121.895 10.2656H119.558C118.291 10.2656 117.253 10.3279 117.253 10.4214C117.253 10.733 115.922 18.554 115.727 19.2084C115.597 19.8316 115.337 19.9251 114.103 19.9251H112.643L112.837 18.8968C113.13 17.5569 114.331 10.7953 114.331 10.4837C114.331 10.3591 113.324 10.2656 112.123 10.2656H109.883L109.526 12.5091Z" fill="black"/>
<path d="M123.614 11.1107C123.517 11.6092 122.998 14.5071 122.446 17.5919C121.894 20.6766 121.147 24.6027 120.822 26.3165C120.238 29.1209 119.199 35.2593 119.199 35.6644C119.199 35.7578 121.439 35.789 124.134 35.7578L129.068 35.6644L129.328 34.2622C129.458 33.4832 129.653 32.5484 129.75 32.1745C129.912 31.4578 129.848 31.4578 127.153 31.4578C124.004 31.4578 124.166 31.676 124.88 28.2796C125.757 24.1977 125.432 24.6027 127.77 24.6027H129.848L130.075 23.1071C130.172 22.2969 130.367 21.3622 130.432 21.0194C130.594 20.4585 130.464 20.3962 128.744 20.4897C127.737 20.552 126.796 20.4897 126.666 20.3339C126.536 20.2093 126.634 18.8071 126.958 17.2803L127.478 14.4759L130.107 14.3824L132.769 14.2889L132.932 13.2918C133.029 12.731 133.224 11.8273 133.354 11.2665L133.581 10.2694H128.679H123.809L123.614 11.1107Z" fill="black"/>
<path d="M134.651 13.4439C134.327 15.22 133.71 18.554 133.32 20.8598C131.957 28.4004 130.853 34.4142 130.658 35.0997C130.496 35.7852 130.561 35.8164 132.769 35.8164H135.041L135.431 33.5418C136.242 28.8055 137.054 25.0975 137.346 24.8171C137.768 24.412 139.196 24.7859 139.456 25.378C139.554 25.6272 139.359 27.1852 139.002 28.8055C138.645 30.4258 138.287 32.6381 138.158 33.7599L137.93 35.8164H140.268H142.573V34.7258C142.573 34.1026 142.93 31.7034 143.384 29.3975C144.391 24.1628 144.423 23.228 143.514 22.6048C142.833 22.1685 142.833 22.1374 144.001 21.0468C145.202 19.8627 145.267 19.7381 145.819 16.6845C146.371 13.662 146.241 11.6055 145.495 10.8888C144.91 10.3279 144.423 10.2656 140.041 10.2656H135.268L134.651 13.4439ZM141.112 14.0982C141.664 14.5033 141.664 14.6903 141.274 16.6845C140.787 19.2084 140.398 20.299 139.878 20.6106C139.359 20.9222 138.093 20.9222 137.898 20.6106C137.768 20.3925 138.807 15.033 139.164 14.0671C139.359 13.5685 140.333 13.5997 141.112 14.0982Z" fill="black"/>
<path d="M148.613 10.9523C148.45 11.6689 147.736 15.6885 145.821 26.1581C145.301 29.1494 144.717 32.2965 144.522 33.1067C143.905 36.0357 143.548 35.8487 149.132 35.7552L154.067 35.6618L154.326 34.2596C154.456 33.4806 154.651 32.5458 154.748 32.1719C154.911 31.4552 154.846 31.4552 152.151 31.4552C149.002 31.4552 149.164 31.6733 149.879 28.277C150.755 24.1327 150.463 24.5378 152.671 24.6625C154.813 24.7559 154.586 24.974 155.105 22.419C155.203 21.9827 155.333 21.3907 155.43 21.0791C155.592 20.6117 155.365 20.5494 153.612 20.5494C152.346 20.5494 151.599 20.4248 151.502 20.1443C151.437 19.9574 151.632 18.5864 151.924 17.1219L152.508 14.4733L155.138 14.3798L157.768 14.2863L157.962 12.8218C158.092 12.0117 158.255 11.1081 158.352 10.7965C158.514 10.2979 158.125 10.2668 153.645 10.2668C148.84 10.2668 148.742 10.2668 148.613 10.9523Z" fill="black"/>
<path d="M159.487 11.8236C158.935 14.2852 158.935 14.3163 160.558 14.3163C161.37 14.3163 162.084 14.441 162.181 14.5968C162.279 14.7214 162.084 16.3729 161.759 18.2424C161.402 20.112 160.688 24.1004 160.136 27.0917C159.617 30.0831 159.032 33.1678 158.838 33.9468C158.643 34.7258 158.48 35.4425 158.48 35.5671C158.48 35.7229 159.487 35.8164 160.721 35.8164H162.961L163.48 33.0744C163.772 31.5787 164.227 29.1171 164.486 27.5591C164.779 26.0012 165.298 23.1345 165.655 21.1714C166.012 19.2084 166.434 16.8403 166.629 15.9366L166.954 14.3163H168.707H170.46L170.655 12.8207C170.784 12.0105 170.947 11.1069 171.044 10.7953C171.174 10.2968 170.752 10.2656 165.525 10.2656H159.844L159.487 11.8236Z" fill="black"/>
<path d="M171.856 14.2229C171.466 16.4352 170.785 20.1743 170.33 22.5736C169.908 24.9729 169.259 28.5562 168.902 30.5193C168.545 32.4823 168.187 34.4765 168.09 34.9439L167.928 35.8164H170.168C171.759 35.8164 172.44 35.6918 172.44 35.4113C172.473 35.2244 172.668 33.9157 172.927 32.5447C173.934 27.3099 176.985 10.6707 176.985 10.3591C176.985 10.2968 175.979 10.2656 174.778 10.2656H172.538L171.856 14.2229Z" fill="black"/>
</svg>
