<svg width="199" height="42" viewBox="0 0 199 42" fill="none" xmlns="http://www.w3.org/2000/svg">
<path fill-rule="evenodd" clip-rule="evenodd" d="M17.8534 0.684939C13.2808 1.57286 9.99644 3.33167 6.5843 6.72012C0.0958335 13.1635 -1.33883 22.6553 2.94457 30.7988C5.74203 36.1171 10.5107 39.8386 16.6345 41.4823C17.9656 41.8396 18.8715 41.918 21.8199 41.9312C25.8156 41.949 27.4114 41.6537 30.5939 40.3075C38.5712 36.9328 43.7633 28.6971 43.2819 20.1819C42.7267 10.3667 35.7023 2.49981 25.8652 0.676316C23.8192 0.297038 19.829 0.301349 17.8534 0.684939ZM15.6027 12.575C16.2004 12.8771 16.8815 13.9833 16.8815 14.6521C16.8815 14.8517 16.5397 15.9238 16.1224 17.0345C15.4071 18.9373 15.3825 19.0829 15.6964 19.5511C15.8797 19.8244 16.226 20.109 16.4658 20.1834C17.2639 20.4308 17.8525 19.8008 18.4437 18.0666C19.2685 15.6464 20.4195 14.788 21.9838 15.4269C23.1594 15.9068 23.479 16.5563 23.314 18.1295C23.1921 19.2909 23.2272 19.5036 23.6009 19.8688C24.0876 20.3443 24.626 20.3994 25.1475 20.0267C25.3459 19.885 26.0136 18.4231 26.631 16.7785C27.9957 13.1428 28.0841 12.976 28.8556 12.5861C29.7104 12.1542 30.3606 12.1984 31.1928 12.745C32.4083 13.5432 32.461 14.3396 31.4809 17.1046C30.6569 19.4297 30.6567 19.4316 31.0703 19.8782C31.6877 20.5448 32.8744 20.3316 33.815 19.3854C34.8479 18.3461 35.944 18.0948 37.1574 18.6192C38.2732 19.1016 38.9449 20.0585 38.9459 21.1676C38.9487 23.8965 35.7059 24.9598 33.7192 22.8816C33.1199 22.2547 32.2999 22.0491 31.1531 22.2385C29.7552 22.4691 29.1042 23.3182 28.0333 26.3056C27.0891 28.9392 26.5606 29.731 25.5466 30.0304C24.8771 30.2282 23.6904 29.7973 23.1892 29.1747C22.592 28.4328 22.6544 27.4011 23.421 25.3448C23.8564 24.177 24.0306 23.4094 23.9405 23.0582C23.7644 22.3724 23.0396 22.0411 22.3089 22.3126C21.8604 22.4791 21.6333 22.8609 21.0749 24.386C20.2715 26.5808 19.6236 27.2664 18.3525 27.2664C16.7222 27.2664 15.6899 25.6947 16.2174 24.0156C16.4836 23.1677 16.1657 22.4697 15.4058 22.234C14.5037 21.9541 14.0588 22.5736 12.8784 25.7542C11.5231 29.4053 11.0482 30.0386 9.66566 30.0386C8.5666 30.0386 7.78591 29.4647 7.42299 28.3901C7.1643 27.6241 7.08528 27.8722 10.4316 18.9533C12.4165 13.6629 12.6437 13.1701 13.2947 12.7415C14.1136 12.2021 14.771 12.1547 15.6027 12.575Z" fill="black"/>
<path fill-rule="evenodd" clip-rule="evenodd" d="M150.533 16.1514L150.586 31.9083L151.782 31.9719L152.978 32.0356V16.2151V0.394531H151.729H150.479L150.533 16.1514ZM59.1527 9.95455C55.9491 10.3317 53.736 12.6698 53.1252 16.322C52.981 17.1849 52.9184 20.3148 52.956 24.7991L53.0155 31.9083H54.2638H55.512L55.616 23.9503C55.7084 16.8903 55.7623 15.8967 56.0941 15.1464C56.9225 13.2725 58.3268 12.3971 60.505 12.3971C63.467 12.3971 65.0799 14.0817 65.5944 17.7129C65.7084 18.5174 65.8035 22.069 65.8058 25.6055L65.81 32.0356L67.0062 31.9719L68.2024 31.9083L68.3145 24.2686C68.4325 16.2286 68.4643 15.9553 69.4594 14.4422C71.1786 11.8273 75.4894 11.5897 77.2457 14.0127C78.3275 15.5054 78.3747 15.8887 78.4933 24.1625L78.6044 31.9083L79.8006 31.9719L80.9968 32.0356V24.5018C80.9968 19.81 80.9098 16.5438 80.7663 15.8435C80.0871 12.5285 77.985 10.3979 74.9801 9.97852C71.6871 9.51929 68.9156 10.7149 67.2621 13.3088L66.9461 13.8045L66.2726 12.7445C64.9033 10.5889 62.3301 9.58063 59.1527 9.95455ZM132.568 9.96219C128.49 10.417 124.858 13.8544 123.85 18.2114C123.503 19.7143 123.498 22.4722 123.84 23.9503C124.299 25.9372 125.249 27.7045 126.629 29.1378C128.869 31.4669 131.162 32.3325 134.696 32.1839C136.761 32.0971 137.059 32.0288 138.469 31.3177C139.858 30.6178 141.888 28.8821 141.992 28.3074C142.013 28.1871 142.083 28.9479 142.148 29.9983L142.264 31.9083H143.409H144.553V21.0854V10.2625H143.409H142.264L142.204 12.1329L142.144 14.0034L141.192 12.9232C139.141 10.5963 136.135 9.56428 132.568 9.96219ZM186.265 9.96049C180.802 10.591 177.03 15.1924 177.059 21.1915C177.078 25.048 178.535 28.1385 181.32 30.2299C185.643 33.4765 191.963 32.928 195.532 28.9965C199.573 24.544 199.478 17.2451 195.324 12.9956C192.961 10.5776 189.875 9.5437 186.265 9.96049ZM93.0849 10.2801C90.4663 10.9982 87.8398 13.205 86.6419 15.693C83.4508 22.3215 86.6093 30.1571 93.1758 31.9017C94.6163 32.2843 97.1694 32.324 98.722 31.9879C100.265 31.6536 102.187 30.6543 103.444 29.5332C104.644 28.4621 105.838 26.8158 105.693 26.4321C105.641 26.2927 105.22 25.9623 104.758 25.6983L103.919 25.2178L103.482 25.9376C103.242 26.3336 102.619 27.0594 102.097 27.5502C98.739 30.7076 93.2665 30.6025 90.1759 27.3217C88.8761 25.9419 87.8808 23.5048 87.8671 21.669L87.8621 20.9793H96.9268H105.991L105.856 19.759C105.179 13.6352 101.346 9.9085 95.7759 9.95816C94.9132 9.9658 93.7022 10.1107 93.0849 10.2801ZM114.281 10.1721C111.037 10.6491 109.285 12.443 109.295 15.2781C109.303 17.7583 110.378 19.203 113.971 21.5656C117.302 23.7557 118.028 24.627 118.027 26.4332C118.026 27.7737 117.439 28.7391 116.307 29.2632C115.569 29.6051 114.934 29.6715 112.359 29.6754L109.29 29.68V30.8154V31.9505L111.527 32.0846C117.645 32.4515 120.626 30.5486 120.613 26.2846C120.605 23.6485 119.592 22.3209 115.494 19.5695C112.621 17.6403 111.991 16.9534 111.84 15.5835C111.706 14.3741 112.193 13.4671 113.299 12.8642C114.056 12.4515 114.513 12.3814 116.572 12.3611L118.964 12.3375L119.027 11.3509C119.071 10.6786 119.005 10.3367 118.819 10.2782C118.2 10.0819 115.346 10.0152 114.281 10.1721ZM156.515 10.258C156.515 10.3421 162.638 26.3383 164.314 30.635L164.811 31.9083H166.02H167.228L169.581 25.7541C173.386 15.7974 175.447 10.3507 175.447 10.2504C175.447 10.1986 174.845 10.1564 174.109 10.1564H172.772L172.363 11.2705C172.138 11.8831 170.926 15.154 169.67 18.5388C168.415 21.9236 167.12 25.4332 166.793 26.3377C166.466 27.2421 166.14 27.9823 166.068 27.9823C165.997 27.9823 164.599 24.3772 162.962 19.9712C161.325 15.5653 159.816 11.5542 159.61 11.0583L159.234 10.1564H157.875C157.127 10.1564 156.515 10.202 156.515 10.258ZM98.3346 12.7078C100.641 13.4346 102.513 15.5931 103.161 18.2735L103.302 18.8571H95.6721H88.0421L88.1825 18.3796C89.5532 13.7141 93.8715 11.3017 98.3346 12.7078ZM137.167 12.8095C140.305 13.92 142.224 17.0669 142.214 21.0854C142.2 26.4419 139.127 29.7942 134.264 29.7577C131.918 29.7399 130.493 29.1851 128.88 27.6625C124.005 23.0587 125.902 14.4009 132.179 12.6051C133.523 12.2206 135.763 12.3125 137.167 12.8095ZM190.644 12.8975C194.096 14.2152 195.999 17.4875 195.799 21.7613C195.691 24.0589 194.909 25.9661 193.476 27.4284C190.479 30.4858 185.523 30.6297 182.433 27.7489C181.071 26.4796 180.376 25.3214 179.936 23.5933C179.086 20.2463 179.988 16.7443 182.258 14.5783C182.824 14.0386 183.58 13.4423 183.939 13.253C185.908 12.2144 188.495 12.0773 190.644 12.8975Z" fill="black"/>
</svg>
