<svg width="198" height="34" viewBox="0 0 198 34" fill="none" xmlns="http://www.w3.org/2000/svg">
<g clip-path="url(#clip0_1080_109)">
<path d="M19.7973 15.4579L19.7169 15.6656C21.0573 16.2554 24.0664 18.5943 24.0664 23.3057C24.0664 27.7424 20.3268 32.2125 14.4492 32.2125C7.13749 32.2125 4.61759 27.9367 4.61759 24.0094C4.61759 18.9763 8.13607 15.6254 8.13607 11.0413C8.1169 9.42005 7.54836 7.85323 6.52336 6.59693C5.49836 5.34064 4.07753 4.46918 2.49309 4.125L2.37246 4.33276C2.94705 4.89029 3.40296 5.55826 3.71278 6.29651C4.02259 7.03476 4.1799 7.82804 4.17526 8.62865C4.17526 13.5813 0 17.0998 0 22.783C0 28.0172 3.65922 33.3518 14.2549 33.3518C23.6978 33.3518 28.6773 28.7276 28.6773 23.8084C28.6706 19.5862 25.648 16.0141 19.7973 15.4579Z" fill="url(#paint0_linear_1080_109)"/>
<path d="M61.2815 32.5061L48.7289 16.3211V30.911L51.289 31.5209V32.1911H45.4517V31.5209L47.5426 30.911V15.0142C47.0337 14.5398 46.421 14.191 45.7532 13.9955C45.4986 13.9419 45.1568 13.8816 45.1568 13.8816V13.2114H50.1095L60.8325 27.1513V14.5049L58.2723 13.8883V13.2181H64.1097V13.8883L62.0187 14.5049V28.9742C62.0187 30.3146 62.1125 32.2648 62.1326 32.5128L61.2815 32.5061ZM87.526 22.1986C87.526 28.9005 82.8347 32.7876 77.7078 32.7876C72.5808 32.7876 67.8694 28.8469 67.8694 22.7214C67.8694 16.5959 72.5607 12.615 77.6608 12.615C78.9446 12.5726 80.2238 12.7896 81.4217 13.2531C82.6197 13.7165 83.7119 14.4169 84.6329 15.3122C85.5539 16.2076 86.2848 17.2795 86.7819 18.4639C87.279 19.6483 87.5321 20.9208 87.526 22.2053V22.1986ZM84.2622 23.2039C84.2622 18.278 81.3134 13.4996 77.3056 13.4996C73.0433 13.4996 71.1198 17.6212 71.1198 22.0311C71.1198 26.4409 73.5526 31.9096 78.13 31.9096C82.4326 31.9096 84.2622 27.5534 84.2622 23.2039ZM91.5806 14.4915L89.5701 13.8749V13.2047H97.2705V13.8749L94.8578 14.4915L100.172 28.9809L105.487 14.4915L103.074 13.8749V13.2047H108.771V13.8749L106.76 14.4915L100.105 32.553H98.4031L91.5806 14.4915ZM137.086 22.5002H135.867V14.2033C139.888 14.2033 142.28 15.1282 142.28 18.4121C142.26 20.8515 140.169 22.5002 137.086 22.5002ZM171.541 31.5209L174.221 30.911V14.4982L171.541 13.8816V13.2114H179.898V13.8816L177.217 14.4982V30.911L179.898 31.5209V32.1911H171.541V31.5209ZM185.018 26.9771H185.548L187.324 31.0652C188.379 31.5955 189.54 31.884 190.721 31.9096C193.027 31.9096 195.131 30.5693 195.131 28.17C195.131 26.3471 193.952 25.2614 192.042 24.2628L190.152 23.2843C187.893 22.1115 185.635 20.4494 185.635 17.7754C185.635 14.8668 187.645 12.6217 191.948 12.6217C193.46 12.637 194.96 12.8833 196.398 13.3522L196.847 17.7486H196.277L194.635 14.2234C193.785 13.7487 192.828 13.4995 191.854 13.4996C189.676 13.4996 188.195 14.84 188.195 16.6964C188.195 18.3786 189.314 19.4375 191.231 20.4293L193.469 21.5955C196.525 23.1771 197.973 24.6448 197.973 27.3591C197.973 30.71 194.83 32.7943 190.922 32.7943C189.083 32.8223 187.251 32.5483 185.501 31.9834L185.018 26.9771ZM107.544 31.5209L109.696 30.911L116.337 13.198L118.556 12.6284L125.412 30.9043L127.563 31.5209V32.1911H119.427V31.5209L122.181 30.9043L120.238 25.6501H112.933L111.003 30.9043L113.757 31.5142V32.1844H107.544V31.5209ZM113.442 24.2494H119.762L116.626 15.7782L113.442 24.2494ZM140.92 22.909C141.59 22.7415 145.35 21.7831 145.35 18.2177C145.35 15.356 143.158 13.1377 137.756 13.1377C134.406 13.1377 131.055 13.2114 130.632 13.2248V13.895L132.837 14.5116V30.9043L130.632 31.5209V32.1911H138.433V31.5209L135.873 30.9043V23.4921H138.078L143.714 32.2045H148.707V31.5343L146.181 30.8641L140.92 22.909ZM157.393 14.1966V30.911L154.712 31.5209V32.1911H163.069V31.5209L160.389 30.911V14.2033H164.899L166.387 17.4068H166.963L166.534 13.2315H151.247L150.818 17.4068H151.395L152.869 14.2368L157.393 14.1966ZM14.3818 26.26L17.0626 0.933594H11.5L14.1807 26.26H14.3818Z" fill="black"/>
</g>
<defs>
<linearGradient id="paint0_linear_1080_109" x1="-0.00670187" y1="18.7351" x2="28.6706" y2="18.7351" gradientUnits="userSpaceOnUse">
<stop offset="0.3"/>
<stop offset="0.7"/>
</linearGradient>
<clipPath id="clip0_1080_109">
<rect width="198" height="32.3767" fill="white" transform="translate(0 0.933594)"/>
</clipPath>
</defs>
</svg>
