<svg width="198" height="43" viewBox="0 0 198 43" fill="none" xmlns="http://www.w3.org/2000/svg">
<g clip-path="url(#clip0_1080_67)">
<path fill-rule="evenodd" clip-rule="evenodd" d="M22.9596 34.2095V8.90921L17.2477 5.86378V32.5254L14.3184 34.0884V4.30201L9.11912 1.5299C5.06704 -0.630531 0.00195312 2.07001 0.00195312 6.39089V36.728C0.00195312 39.8111 2.58107 42.0693 5.53082 42.3251V9.25146C5.53082 7.94425 6.67835 6.88459 8.0939 6.88459H8.60649V41.8345C8.77877 41.761 8.94985 41.6792 9.11912 41.589L22.9596 34.2095ZM25.8888 32.6478L37.569 26.4204C41.6211 24.26 41.6211 18.8588 37.569 16.6984L34.5301 15.0781V23.3449L31.6007 24.9069V13.5163L25.8888 10.471V32.6478Z" fill="black"/>
<path fill-rule="evenodd" clip-rule="evenodd" d="M88.0623 9.20015L87.535 9.59157V21.6561V33.7206L87.9799 34.0145C88.369 34.2722 89.8036 34.3086 99.5401 34.3086C109.277 34.3086 110.711 34.2722 111.1 34.0145L111.545 33.7206V21.766C111.545 10.4248 111.526 9.79556 111.179 9.49899C110.643 9.04056 109.633 9.09683 109.255 9.60629C108.983 9.97347 108.944 11.3034 108.941 20.2313C108.939 28.0092 108.878 30.5488 108.688 30.9086C108.551 31.1683 108.124 31.5295 107.741 31.711C107.114 32.0078 106.286 32.0414 99.5838 32.0416C91.3766 32.0419 91.0345 32.0004 90.4494 30.9328C90.1763 30.4339 90.136 29.0331 90.136 19.9761V9.59157L89.6091 9.20015C89.3189 8.98485 88.9711 8.80859 88.8357 8.80859C88.7003 8.80859 88.352 8.98485 88.0623 9.20015ZM121.766 9.16996C121.537 9.38677 121.348 9.75533 121.347 9.98914C121.344 10.529 130.711 33.5336 131.115 33.978C131.515 34.4185 132.792 34.4185 133.193 33.978C133.358 33.7962 134.947 30.0775 136.722 25.7142C140.234 17.0895 140.324 16.9308 141.758 16.9308C143.178 16.9308 143.274 17.098 146.777 25.7142C148.705 30.4551 150.164 33.7805 150.404 33.978C150.625 34.1597 151.052 34.3086 151.353 34.3086C151.654 34.3086 152.04 34.1597 152.212 33.978C152.383 33.7962 154.653 28.4344 157.256 22.0625C160.606 13.8623 161.971 10.3033 161.927 9.88057C161.848 9.10705 161.057 8.69131 160.292 9.02035C159.714 9.26911 159.964 8.71985 155.962 18.5364C154.395 22.3803 152.978 25.6709 152.814 25.8486C152.284 26.4206 151.288 26.6191 150.503 26.3093C150.122 26.159 149.733 25.9212 149.64 25.7807C149.547 25.6401 147.974 21.8703 146.144 17.4031C143.237 10.3052 142.751 9.24966 142.288 9.03431C141.852 8.83183 141.663 8.83183 141.226 9.03431C140.762 9.25004 140.28 10.299 137.358 17.4529C135.422 22.191 133.831 25.8141 133.571 26.0753C132.754 26.896 131.142 26.7402 130.482 25.7765C130.316 25.5345 128.725 21.7664 126.947 17.4031C125.17 13.0397 123.61 9.36903 123.482 9.24606C123.008 8.78933 122.208 8.75383 121.766 9.16996ZM174.298 9.57794C173.683 10.0345 173.615 10.6947 174.137 11.1404C174.468 11.4236 175.578 11.4531 185.93 11.4531H197.358L197.67 11.0331C198.097 10.4572 198.062 10.1903 197.49 9.65012L196.999 9.18638H185.912C174.999 9.18638 174.817 9.19244 174.298 9.57794ZM52.3661 9.69054C52.2263 9.74378 51.9784 10.0303 51.8159 10.3275C51.3666 11.1482 51.3734 32.7378 51.8236 33.5597C52.3569 34.533 53.9405 34.5272 54.464 33.5499C54.6527 33.1983 54.7163 31.2936 54.7182 25.9437C54.7216 18.1124 54.7148 18.1584 55.9282 17.6839C57.3401 17.1318 57.3289 17.1222 64.5372 24.914C73.5561 34.6632 73.1898 34.3086 74.2489 34.3086C75.8102 34.3086 75.7302 34.972 75.7302 22.0142C75.7302 10.7119 75.7243 10.553 75.3153 10.0619C74.7763 9.41475 73.7788 9.38341 73.1709 9.99444C72.7502 10.417 72.7415 10.5596 72.6857 17.849L72.6289 25.2733L71.9754 25.8243C71.2273 26.4552 70.3772 26.5413 69.5583 26.0691C69.2662 25.9008 66.0111 22.4967 62.3248 18.5043C53.8051 9.27839 54.0909 9.56038 53.2743 9.57907C52.9148 9.58722 52.5063 9.63743 52.3661 9.69054ZM174.171 20.7086C173.951 20.9164 173.771 21.2564 173.771 21.4642C173.771 21.6719 173.951 22.0119 174.171 22.2197C174.562 22.5886 174.838 22.5975 185.838 22.5975C198.227 22.5975 197.848 22.6334 197.848 21.4642C197.848 20.295 198.227 20.3308 185.838 20.3308C174.838 20.3308 174.562 20.3397 174.171 20.7086ZM174.054 32.324C173.631 32.9327 173.814 33.6135 174.476 33.8985C174.849 34.0589 178.011 34.1197 185.994 34.1197H196.999L197.502 33.6443C197.873 33.2947 197.97 33.0576 197.869 32.7471C197.567 31.8183 198.034 31.853 185.856 31.853H174.38L174.054 32.324Z" fill="black"/>
</g>
<defs>
<clipPath id="clip0_1080_67">
<rect width="198" height="41.5556" fill="white" transform="translate(0 0.769531)"/>
</clipPath>
</defs>
</svg>
