<svg width="198" height="35" viewBox="0 0 198 35" fill="none" xmlns="http://www.w3.org/2000/svg">
<g clip-path="url(#clip0_1080_106)">
<path d="M26.1839 16.1969C26.1008 14.95 25.7683 13.7032 25.1033 12.6226L19.4509 2.73089C19.0353 1.98278 18.7028 1.15155 18.5365 0.320312L18.2872 0.73593C16.8741 3.14651 16.8741 6.22208 18.2872 8.63266L22.8589 16.5294C24.272 18.94 24.272 22.0155 22.8589 24.4261L22.6096 24.8417C22.4433 24.0105 22.1108 23.1793 21.6952 22.4311L17.539 15.1994L14.8791 10.5445C14.4635 9.79638 14.131 8.96515 13.9647 8.13392L13.7154 8.54953C12.3023 10.9601 12.3023 13.9526 13.7154 16.4463L18.2872 24.343C19.7003 26.7536 19.7003 29.8291 18.2872 32.2397L18.0378 32.6553C17.8715 31.8241 17.539 30.9929 17.1234 30.2447L11.3879 20.3531C10.6398 19.0231 10.3073 17.5269 10.3073 16.0306C4.23929 17.61 0 21.018 0 24.9248C0 30.411 8.1461 34.8165 18.204 34.8165C28.262 34.8165 36.4081 30.411 36.4081 24.9248C36.4912 21.1843 32.335 17.7762 26.1839 16.1969ZM43.3904 33.0709C43.4736 31.6578 43.6398 30.7435 44.0554 29.5798C45.9673 30.4941 48.461 30.9097 50.2897 30.9097C53.4484 30.9097 55.2771 29.9123 55.2771 27.8342C55.2771 25.8392 53.9471 24.9248 50.7884 23.5117L49.0428 22.8468C45.801 21.4337 43.6398 19.6049 43.6398 16.0306C43.6398 12.1238 46.3829 9.63014 51.869 9.63014C54.1134 9.63014 56.1914 9.96263 58.1033 10.6276C58.0202 11.9576 57.7708 13.0382 57.4383 14.0357C55.6096 13.3707 53.3652 13.0382 51.7859 13.0382C48.7935 13.0382 47.4635 14.2019 47.4635 16.0306C47.4635 17.7762 48.7935 18.8568 51.204 19.8543L53.0327 20.6024C57.3552 22.4311 59.1839 24.4261 59.1839 27.751C59.1839 31.6578 56.1914 34.4009 50.3728 34.4009C47.6297 34.4009 45.3023 33.9853 43.3904 33.0709ZM77.5542 16.6956V33.8191H74.063L73.8967 31.741C72.8992 33.2372 71.4861 34.2347 69.0756 34.2347C64.5869 34.2347 61.5113 30.9097 61.5113 25.1742C61.5113 19.1893 64.7532 15.6981 71.0705 15.6981C73.5642 15.7813 75.6423 16.0306 77.5542 16.6956ZM73.8136 29.9123V19.1893C73.0655 19.0231 72.1511 19.0231 71.0705 19.0231C67.1637 19.0231 65.335 21.4337 65.335 25.2573C65.335 28.7485 66.7481 31.2422 70.0731 31.2422C71.6524 31.1591 72.8161 30.6604 73.8136 29.9123ZM96.8388 22.348V33.8191H93.0982V23.013C93.0982 20.2699 92.1839 19.0231 88.4433 19.0231C87.529 19.0231 86.5315 19.1062 85.4509 19.2725V33.8191H81.7103V16.6956C84.1209 16.1138 86.7809 15.6981 88.5265 15.6981C94.8438 15.7813 96.8388 18.1918 96.8388 22.348ZM107.312 31.076C108.393 31.076 109.474 30.9097 110.222 30.5772C110.139 31.5747 109.972 32.7384 109.806 33.7359C108.809 34.1515 107.645 34.3178 106.647 34.3178C102.99 34.3178 100.662 32.6553 100.662 28.4992V10.4614C101.826 10.0458 103.239 9.87951 104.403 9.87951V16.3631H110.388C110.305 17.5269 110.222 18.6075 110.055 19.6049H104.403V28.0004C104.403 30.1616 105.484 31.076 107.312 31.076ZM127.511 16.6956V33.8191H124.02L123.854 31.741C122.856 33.2372 121.443 34.2347 119.033 34.2347C114.544 34.2347 111.469 30.9097 111.469 25.1742C111.469 19.1893 114.71 15.6981 121.028 15.6981C123.521 15.7813 125.516 16.0306 127.511 16.6956ZM123.688 29.9123V19.1893C122.94 19.0231 122.025 19.0231 120.945 19.0231C117.038 19.0231 115.209 21.4337 115.209 25.2573C115.209 28.7485 116.622 31.2422 119.947 31.2422C121.526 31.1591 122.773 30.6604 123.688 29.9123ZM146.796 22.348V33.8191H142.972V23.013C142.972 20.2699 142.058 19.0231 138.317 19.0231C137.403 19.0231 136.406 19.1062 135.325 19.2725V33.8191H131.584V16.6956C133.995 16.1138 136.655 15.6981 138.401 15.6981C144.718 15.7813 146.796 18.1918 146.796 22.348ZM165.831 9.87951V33.8191H162.34L162.174 31.6578C161.176 33.2372 159.763 34.2347 157.27 34.2347C152.781 34.2347 149.705 30.9097 149.705 25.1742C149.705 19.1893 152.947 15.6981 159.264 15.6981C160.262 15.6981 161.176 15.7813 162.091 15.9475V10.2951C163.254 9.96263 164.584 9.87951 165.831 9.87951ZM162.091 29.9123V19.3556C161.093 19.1893 160.096 19.0231 159.098 19.0231C155.358 19.0231 153.612 21.3505 153.612 25.2573C153.612 28.7485 155.025 31.2422 158.35 31.2422C159.846 31.1591 161.093 30.6604 162.091 29.9123ZM184.783 26.5042H172.73C173.229 29.5798 174.975 30.9929 178.383 30.9929C180.461 30.9929 182.539 30.5772 184.368 29.6629C184.202 30.6604 184.035 31.9903 183.786 33.0709C182.04 33.8191 180.295 34.1515 178.217 34.1515C171.899 34.1515 168.907 30.6604 168.907 24.8417C168.907 19.7712 171.234 15.6981 177.219 15.6981C182.622 15.6981 184.95 19.1893 184.95 23.5117C184.95 24.6755 184.95 25.5067 184.783 26.5042ZM172.73 23.3455H181.209C181.209 20.5193 179.713 18.8568 177.136 18.8568C174.393 18.94 172.98 20.4362 172.73 23.3455ZM198 15.9475C198 17.1112 197.834 18.4412 197.668 19.1893C196.753 19.1062 195.922 19.0231 194.841 19.0231C193.927 19.0231 193.013 19.1062 192.098 19.1893V33.8191H188.358V16.6956C189.937 16.1138 192.68 15.6981 194.758 15.6981C195.839 15.7813 197.169 15.7813 198 15.9475Z" fill="black"/>
</g>
<defs>
<clipPath id="clip0_1080_106">
<rect width="198" height="34.4962" fill="white" transform="translate(0 0.324219)"/>
</clipPath>
</defs>
</svg>
