<svg width="200" height="29" viewBox="0 0 200 29" fill="none" xmlns="http://www.w3.org/2000/svg">
<g clip-path="url(#clip0_1644_6)">
<path d="M8.49571 28.3688V7.20811H0.117188V1.08984H24.5513V7.20811H16.2117V28.3688H8.49571Z" fill="black"/>
<path d="M27.4258 28.3688V1.08984H39.8961C42.3901 1.08984 44.5336 1.49253 46.3261 2.29792C48.1446 3.10329 49.5475 4.27238 50.5349 5.8052C51.522 7.31203 52.0157 9.10464 52.0157 11.183C52.0157 13.2354 51.522 15.0151 50.5349 16.5219C49.5475 18.0027 48.1446 19.1459 46.3261 19.9513C44.5336 20.7306 42.3901 21.1204 39.8961 21.1204H31.7124L35.1417 17.8859V28.3688H27.4258ZM44.2996 28.3688L37.5188 18.4314H45.7416L52.5612 28.3688H44.2996ZM27.4258 15.158H35.1417H39.4284C41.0392 15.158 42.2342 14.8072 43.0137 14.1058C43.8191 13.4043 44.2217 12.4301 44.2217 11.183C44.2217 9.91003 43.8191 8.92279 43.0137 8.22134C42.2342 7.51986 41.0392 7.16914 39.4284 7.16914H35.1417H27.4258V15.158Z" fill="black"/>
<path d="M53 28.3688L65.0417 1.08984H72.6408L84.7215 28.3688H76.6937L67.2629 4.86992H70.3025L60.872 28.3688H53Z" fill="black"/>
<path d="M100.129 28.9169C97.972 28.9169 95.9716 28.5792 94.127 27.9038C92.3086 27.2022 90.7237 26.2151 89.3728 24.9419C88.0478 23.669 87.0086 22.1752 86.2552 20.4605C85.5017 18.7198 85.125 16.8103 85.125 14.7319C85.125 12.6535 85.5017 10.757 86.2552 9.04231C87.0086 7.30166 88.0478 5.79481 89.3728 4.52181C90.7237 3.24878 92.3086 2.27454 94.127 1.59906C95.9716 0.897605 97.972 0.546875 100.129 0.546875C102.649 0.546875 104.896 0.988534 106.87 1.87185C108.871 2.75516 110.533 4.02819 111.858 5.69089L106.948 10.1335C106.065 9.09427 105.091 8.30188 104.026 7.7563C102.986 7.21072 101.817 6.93793 100.518 6.93793C99.401 6.93793 98.3748 7.11979 97.4395 7.48351C96.5043 7.84724 95.6989 8.37982 95.0235 9.08128C94.374 9.75675 93.8544 10.5751 93.4645 11.5364C93.1008 12.4976 92.919 13.5628 92.919 14.7319C92.919 15.901 93.1008 16.9661 93.4645 17.9274C93.8544 18.8886 94.374 19.7201 95.0235 20.4215C95.6989 21.0969 96.5043 21.6165 97.4395 21.9802C98.3748 22.344 99.401 22.5259 100.518 22.5259C101.817 22.5259 102.986 22.2531 104.026 21.7076C105.091 21.1619 106.065 20.3696 106.948 19.3303L111.858 23.773C110.533 25.4097 108.871 26.6827 106.87 27.5919C104.896 28.4752 102.649 28.9169 100.129 28.9169Z" fill="black"/>
<path d="M156.809 28.9143C152.783 28.9143 149.639 27.8101 147.379 25.6018C145.119 23.3937 143.988 20.263 143.988 16.2102V1.08984H151.704V15.9763C151.704 18.3146 152.159 19.9902 153.068 21.0034C154.004 22.0167 155.277 22.5233 156.887 22.5233C158.498 22.5233 159.758 22.0167 160.667 21.0034C161.577 19.9902 162.031 18.3146 162.031 15.9763V1.08984H169.631V16.2102C169.631 20.263 168.5 23.3937 166.241 25.6018C163.98 27.8101 160.836 28.9143 156.809 28.9143Z" fill="black"/>
<path d="M174.855 28.3688V1.08984H187.326C189.82 1.08984 191.964 1.49253 193.756 2.29792C195.575 3.10329 196.978 4.27238 197.964 5.8052C198.952 7.31203 199.445 9.10464 199.445 11.183C199.445 13.2354 198.952 15.0151 197.964 16.5219C196.978 18.0288 195.575 19.1979 193.756 20.0292C191.964 20.8346 189.82 21.2372 187.326 21.2372H179.142L182.571 17.8859V28.3688H174.855ZM174.855 15.158H182.571H186.858C188.469 15.158 189.664 14.8072 190.443 14.1058C191.249 13.4043 191.651 12.4301 191.651 11.183C191.651 9.91003 191.249 8.92279 190.443 8.22134C189.664 7.51986 188.469 7.16914 186.858 7.16914H179.142H174.855V15.158Z" fill="black"/>
<path d="M115.32 1.04688H122.932L122.929 4.22232L115.32 11.8274V19.6786L122.929 12.0976L133.967 1.04688H141.909L130.842 12.6729L142.365 28.4109H133.572L125.807 18.434L122.929 21.4804V28.4109H115.32V1.04688Z" fill="black"/>
</g>
<defs>
<clipPath id="clip0_1644_6">
<rect width="199.502" height="28.5472" fill="white" transform="translate(0 0.394531)"/>
</clipPath>
</defs>
</svg>
