<svg width="198" height="25" viewBox="0 0 198 25" fill="none" xmlns="http://www.w3.org/2000/svg">
<path d="M84.8482 6.83402C84.8482 9.08065 83.5137 10.1758 81.2781 10.1758C79.0321 10.1758 77.7207 9.09318 77.7207 6.83402V1.66425H79.5576V6.83402C79.5576 7.74228 79.7926 8.63905 81.2781 8.63905C82.5884 8.63905 83.0102 8.06904 83.0102 6.83402V1.66425H84.8482V6.83402Z" fill="#2B2B2A"/>
<path d="M86.25 3.95596H87.8278V4.79531H87.8645C88.2842 4.11882 89.0101 3.7931 89.7141 3.7931C91.4786 3.7931 91.9245 4.78279 91.9245 6.27358V9.97656H90.2617V6.57634C90.2617 5.58665 89.97 5.09598 89.1969 5.09598C88.2968 5.09598 87.9107 5.59813 87.9107 6.82063V9.97656H86.25V3.95596Z" fill="#2B2B2A"/>
<path d="M93.3496 3.95596H95.0103V9.97656H93.3496V3.95596ZM95.0114 3.02474H93.3507V1.66236H95.0114V3.02474Z" fill="#2B2B2A"/>
<path d="M99.7241 9.97656H97.8745L95.8047 3.95596H97.5483L98.825 8.06713H98.847L100.122 3.95596H101.772L99.7241 9.97656Z" fill="#2B2B2A"/>
<path d="M106.303 6.32567C106.151 5.48631 105.788 5.04471 104.979 5.04471C103.927 5.04471 103.622 5.86006 103.6 6.32567H106.303ZM103.6 7.37382C103.645 8.42197 104.159 8.89907 105.086 8.89907C105.754 8.89907 106.292 8.49087 106.396 8.11922H107.859C107.391 9.54007 106.396 10.1445 105.027 10.1445C103.119 10.1445 101.938 8.83956 101.938 6.97711C101.938 5.17312 103.19 3.79821 105.027 3.79821C107.086 3.79821 108.08 5.52181 107.963 7.37382H103.6Z" fill="#2B2B2A"/>
<path d="M108.943 3.95596H110.523V5.07406H110.545C110.851 4.31717 111.671 3.7931 112.477 3.7931C112.592 3.7931 112.734 3.81607 112.841 3.85052V5.38725C112.688 5.3528 112.441 5.32983 112.243 5.32983C111.028 5.32983 110.603 6.20259 110.603 7.26223V9.97656H108.943V3.95596Z" fill="#2B2B2A"/>
<path d="M114.837 8.02526C114.848 8.74769 115.457 9.04001 116.112 9.04001C116.592 9.04001 117.2 8.85209 117.2 8.26955C117.2 7.76844 116.51 7.59514 115.317 7.33833C114.357 7.12953 113.397 6.79024 113.397 5.73165C113.397 4.19492 114.732 3.79821 116.031 3.79821C117.352 3.79821 118.57 4.24085 118.697 5.72017H117.119C117.071 5.07916 116.58 4.90482 115.982 4.90482C115.609 4.90482 115.058 4.97477 115.058 5.46335C115.058 6.05737 115.995 6.13984 116.942 6.36012C117.917 6.58144 118.862 6.93118 118.862 8.04823C118.862 9.63194 117.482 10.1445 116.101 10.1445C114.696 10.1445 113.326 9.62046 113.258 8.02526H114.837Z" fill="#2B2B2A"/>
<path d="M119.938 3.95596H121.599V9.97656H119.938V3.95596ZM121.6 3.02474H119.939V1.66236H121.6V3.02474Z" fill="#2B2B2A"/>
<path d="M125.251 3.95632H126.468V5.06294H125.251V8.04349C125.251 8.60201 125.389 8.74295 125.953 8.74295C126.128 8.74295 126.291 8.73042 126.468 8.69597V9.98841C126.187 10.0343 125.825 10.0469 125.496 10.0469C124.479 10.0469 123.59 9.81302 123.59 8.61454V5.06294H122.584V3.95632H123.59V2.15129H125.251V3.95632Z" fill="#2B2B2A"/>
<path d="M131.324 7.03453C131.042 7.27882 130.457 7.2903 129.944 7.38426C129.427 7.4897 128.96 7.66509 128.96 8.26955C128.96 8.8855 129.44 9.03896 129.977 9.03896C131.276 9.03896 131.324 8.01273 131.324 7.65256V7.03453ZM127.484 5.81203C127.579 4.26382 128.97 3.79716 130.327 3.79716C131.534 3.79716 132.983 4.06546 132.983 5.50928V8.64225C132.983 9.18929 133.045 9.73634 133.194 9.98063H131.51C131.451 9.79584 131.404 9.59644 131.392 9.39913C130.867 9.94618 130.094 10.1445 129.357 10.1445C128.21 10.1445 127.297 9.57348 127.297 8.33845C127.297 6.97607 128.329 6.65139 129.357 6.51045C130.375 6.36012 131.324 6.39457 131.324 5.71912C131.324 5.00922 130.832 4.90378 130.248 4.90378C129.614 4.90378 129.206 5.15955 129.145 5.81203H127.484Z" fill="#2B2B2A"/>
<path d="M136.314 3.95632H137.53V5.06294H136.314V8.04349C136.314 8.60201 136.454 8.74295 137.015 8.74295C137.19 8.74295 137.356 8.73042 137.53 8.69597V9.98841C137.248 10.0343 136.887 10.0469 136.56 10.0469C135.542 10.0469 134.653 9.81302 134.653 8.61454V5.06294H133.646V3.95632H134.653V2.15129H136.314V3.95632Z" fill="#2B2B2A"/>
<path d="M143.803 6.76216H145.968L144.915 3.71167H144.892L143.803 6.76216ZM143.978 1.66235H145.862L148.988 9.97656H147.079L146.447 8.1256H143.323L142.667 9.97656H140.809L143.978 1.66235Z" fill="#2B2B2A"/>
<path d="M155.152 9.98167H153.573V9.14336H153.539C153.116 9.81881 152.39 10.1445 151.688 10.1445C149.921 10.1445 149.477 9.15484 149.477 7.66509V3.96107H151.138V7.36129C151.138 8.35098 151.432 8.83956 152.203 8.83956C153.105 8.83956 153.491 8.3395 153.491 7.11805V3.96107H155.152V9.98167Z" fill="#2B2B2A"/>
<path d="M158.813 3.95632H160.029V5.06294H158.813V8.04349C158.813 8.60201 158.951 8.74295 159.514 8.74295C159.688 8.74295 159.854 8.73042 160.029 8.69597V9.98841C159.748 10.0343 159.384 10.0469 159.057 10.0469C158.042 10.0469 157.149 9.81302 157.149 8.61454V5.06294H156.145V3.95632H157.149V2.15129H158.813V3.95632Z" fill="#2B2B2A"/>
<path d="M163.935 8.89907C165.071 8.89907 165.41 7.93235 165.41 6.97711C165.41 6.01039 165.071 5.04576 163.935 5.04576C162.812 5.04576 162.473 6.01039 162.473 6.97711C162.473 7.93235 162.812 8.89907 163.935 8.89907ZM161.863 1.56306H163.701L164.825 3.21671H163.666L161.863 1.56306ZM163.935 3.79821C165.842 3.79821 167.07 5.0562 167.07 6.97711C167.07 8.88654 165.842 10.1445 163.935 10.1445C162.04 10.1445 160.811 8.88654 160.811 6.97711C160.811 5.0562 162.04 3.79821 163.935 3.79821Z" fill="#2B2B2A"/>
<path d="M168.029 3.95596H169.611V4.79531H169.646C170.068 4.11882 170.792 3.7931 171.495 3.7931C173.262 3.7931 173.707 4.78279 173.707 6.27358V9.97656H172.044V6.57634C172.044 5.58665 171.752 5.09598 170.979 5.09598C170.078 5.09598 169.692 5.59813 169.692 6.82063V9.97656H168.029V3.95596Z" fill="#2B2B2A"/>
<path d="M177.785 8.89907C178.922 8.89907 179.259 7.93235 179.259 6.97711C179.259 6.01039 178.922 5.04576 177.785 5.04576C176.662 5.04576 176.322 6.01039 176.322 6.97711C176.322 7.93235 176.662 8.89907 177.785 8.89907ZM177.785 3.79821C179.692 3.79821 180.921 5.0562 180.921 6.97711C180.921 8.88654 179.692 10.1445 177.785 10.1445C175.89 10.1445 174.66 8.88654 174.66 6.97711C174.66 5.0562 175.89 3.79821 177.785 3.79821Z" fill="#2B2B2A"/>
<path d="M181.926 3.95596H183.496V4.7713H183.519C183.952 4.15327 184.582 3.7931 185.366 3.7931C186.127 3.7931 186.807 4.07184 187.134 4.79531C187.486 4.27019 188.116 3.7931 188.961 3.7931C190.246 3.7931 191.171 4.38712 191.171 5.94682V9.97656H189.51V6.56485C189.51 5.76099 189.438 5.09598 188.492 5.09598C187.555 5.09598 187.38 5.86539 187.38 6.62227V9.97656H185.718V6.59826C185.718 5.89984 185.765 5.09598 184.712 5.09598C184.386 5.09598 183.588 5.30686 183.588 6.48238V9.97656H181.926V3.95596Z" fill="#2B2B2A"/>
<path d="M196.127 7.03453C195.846 7.27882 195.26 7.2903 194.746 7.38426C194.231 7.4897 193.763 7.66509 193.763 8.26955C193.763 8.8855 194.243 9.03896 194.781 9.03896C196.082 9.03896 196.127 8.01273 196.127 7.65256V7.03453ZM192.288 5.81203C192.382 4.26382 193.774 3.79716 195.132 3.79716C196.338 3.79716 197.789 4.06546 197.789 5.50928V8.64225C197.789 9.18929 197.846 9.73634 197.999 9.98063H196.314C196.255 9.79584 196.21 9.59644 196.196 9.39913C195.669 9.94618 194.899 10.1445 194.162 10.1445C193.014 10.1445 192.102 9.57348 192.102 8.33845C192.102 6.97607 193.133 6.65139 194.162 6.51045C195.18 6.36012 196.127 6.39457 196.127 5.71912C196.127 5.00922 195.636 4.90378 195.051 4.90378C194.418 4.90378 194.009 5.15955 193.95 5.81203H192.288Z" fill="#2B2B2A"/>
<path d="M80.4484 18.8991C79.3594 18.8991 78.9849 19.8304 78.9849 20.8211C78.9849 21.7628 79.4182 22.7535 80.4484 22.7535C81.5478 22.7535 81.8751 21.7983 81.8751 20.8086C81.8751 19.8304 81.5247 18.8991 80.4484 18.8991ZM81.8982 23.0667H81.8751C81.4901 23.7202 80.8124 24 80.0382 24C78.2138 24 77.3242 22.4393 77.3242 20.7741C77.3242 19.1549 78.2243 17.6537 80.0046 17.6537C80.7159 17.6537 81.4177 17.9564 81.8069 18.5494H81.7944H81.8174V15.5229H83.4792V23.8361H81.8982V23.0667Z" fill="#2B2B2A"/>
<path d="M88.918 20.1801C88.7669 19.3407 88.4029 18.8991 87.5961 18.8991C86.5418 18.8991 86.2386 19.7145 86.2155 20.1801H88.918ZM86.2155 21.2282C86.2617 22.2764 86.7768 22.7545 87.7021 22.7545C88.3682 22.7545 88.9064 22.3463 89.0124 21.9736H90.4737C90.0059 23.3945 89.0124 24 87.6433 24C85.735 24 84.5527 22.695 84.5527 20.8326C84.5527 19.0275 85.8043 17.6537 87.6433 17.6537C89.7016 17.6537 90.6983 19.3762 90.5797 21.2282H86.2155Z" fill="#2B2B2A"/>
<path d="M96.0655 22.4172H98.0314C98.7563 22.4172 99.3879 22.1833 99.3879 21.322C99.3879 20.4723 98.8497 20.133 98.0661 20.133H96.0655V22.4172ZM96.0655 18.8875H97.9244C98.5686 18.8875 99.048 18.5962 99.048 17.8989C99.048 17.1054 98.4395 16.9426 97.787 16.9426H96.0655V18.8875ZM94.2285 15.5228H98.1594C99.7509 15.5228 100.828 16.0354 100.828 17.5836C100.828 18.3989 100.418 18.9689 99.6921 19.3187C100.709 19.6099 101.225 20.3898 101.225 21.4264C101.225 23.1146 99.7855 23.8359 98.2769 23.8359H94.2285V15.5228Z" fill="#2B2B2A"/>
<path d="M106.115 20.89C105.835 21.1343 105.25 21.1458 104.735 21.2387C104.22 21.3441 103.752 21.5185 103.752 22.125C103.752 22.741 104.232 22.8934 104.769 22.8934C106.069 22.8934 106.115 21.8682 106.115 21.507V20.89ZM102.277 19.6665C102.371 18.1193 103.763 17.6526 105.121 17.6526C106.325 17.6526 107.777 17.9199 107.777 19.3637V22.4956C107.777 23.0437 107.838 23.5908 107.988 23.8351H106.302C106.244 23.6503 106.198 23.4519 106.187 23.2536C105.66 23.8006 104.886 24 104.149 24C103.002 24 102.088 23.4289 102.088 22.1939C102.088 20.8315 103.12 20.5058 104.149 20.3649C105.168 20.2145 106.115 20.25 106.115 19.5725C106.115 18.8636 105.624 18.7592 105.039 18.7592C104.407 18.7592 103.998 19.015 103.94 19.6665H102.277Z" fill="#2B2B2A"/>
<path d="M109.18 17.8153H110.759V18.9334H110.783C111.086 18.1765 111.906 17.6535 112.713 17.6535C112.829 17.6535 112.97 17.6754 113.076 17.7099V19.2487C112.924 19.2132 112.677 19.1892 112.48 19.1892C111.264 19.1892 110.841 20.0641 110.841 21.1226V23.8359H109.18V17.8153Z" fill="#2B2B2A"/>
<path d="M117.816 19.9348C117.709 19.2604 117.278 18.8991 116.586 18.8991C115.521 18.8991 115.17 19.9703 115.17 20.8545C115.17 21.7158 115.508 22.7535 116.55 22.7535C117.324 22.7535 117.767 22.2628 117.873 21.53H119.475C119.265 23.1262 118.153 24 116.563 24C114.736 24 113.51 22.719 113.51 20.913C113.51 19.038 114.632 17.6526 116.597 17.6526C118.025 17.6526 119.336 18.398 119.44 19.9348H117.816Z" fill="#2B2B2A"/>
<path d="M124.537 20.1801C124.385 19.3407 124.021 18.8991 123.214 18.8991C122.161 18.8991 121.857 19.7145 121.834 20.1801H124.537ZM121.834 21.2282C121.881 22.2764 122.395 22.7545 123.32 22.7545C123.987 22.7545 124.525 22.3463 124.63 21.9736H126.093C125.626 23.3945 124.63 24 123.261 24C121.353 24 120.172 22.695 120.172 20.8326C120.172 19.0275 121.424 17.6537 123.261 17.6537C125.321 17.6537 126.315 19.3762 126.198 21.2282H121.834Z" fill="#2B2B2A"/>
<path d="M127.227 15.5228H128.888V23.8359H127.227V15.5228Z" fill="#2B2B2A"/>
<path d="M133.139 22.7545C134.272 22.7545 134.612 21.7868 134.612 20.8326C134.612 19.8648 134.272 18.9002 133.139 18.9002C132.014 18.9002 131.675 19.8648 131.675 20.8326C131.675 21.7868 132.014 22.7545 133.139 22.7545ZM133.139 17.6537C135.044 17.6537 136.274 18.9106 136.274 20.8326C136.274 22.742 135.044 24 133.139 24C131.241 24 130.012 22.742 130.012 20.8326C130.012 18.9106 131.241 17.6537 133.139 17.6537Z" fill="#2B2B2A"/>
<path d="M137.346 17.8153H138.925V18.6547H138.96C139.382 17.9782 140.107 17.6535 140.81 17.6535C142.576 17.6535 143.021 18.6422 143.021 20.133V23.8359H141.359V20.4357C141.359 19.446 141.068 18.9564 140.297 18.9564C139.392 18.9564 139.007 19.4575 139.007 20.68V23.8359H137.346V17.8153Z" fill="#2B2B2A"/>
<path d="M148.109 20.89C147.827 21.1343 147.243 21.1458 146.73 21.2387C146.215 21.3441 145.746 21.5185 145.746 22.125C145.746 22.741 146.225 22.8934 146.764 22.8934C148.065 22.8934 148.109 21.8682 148.109 21.507V20.89ZM144.272 19.6665C144.365 18.1193 145.757 17.6526 147.115 17.6526C148.32 17.6526 149.771 17.9199 149.771 19.3637V22.4956C149.771 23.0437 149.831 23.5908 149.981 23.8351H148.296C148.239 23.6503 148.192 23.4519 148.179 23.2536C147.654 23.8006 146.883 24 146.143 24C144.998 24 144.086 23.4289 144.086 22.1939C144.086 20.8315 145.114 20.5058 146.143 20.3649C147.162 20.2145 148.109 20.25 148.109 19.5725C148.109 18.8636 147.618 18.7592 147.033 18.7592C146.401 18.7592 145.99 19.015 145.933 19.6665H144.272Z" fill="#2B2B2A"/>
<path d="M19.964 1.08203H13.9863V15.0337C13.9863 18.2137 12.8156 19.5468 10.1037 19.5468C7.21663 19.5468 5.97766 18.1792 5.97766 14.9993V1.08203H0V14.589C0 17.3597 0.276959 18.8641 1.06797 20.3006C2.57864 23.0702 5.53285 24.4023 9.99984 24.4023C13.3663 24.4023 15.7016 23.7185 17.42 22.1463C18.4523 21.1566 19.173 19.9226 19.5863 18.4882C19.8602 17.4286 19.964 16.4358 19.964 14.6245V1.08203ZM55.3852 13.9386H59.955C62.393 13.9386 63.4946 14.7591 63.4946 16.5746C63.4946 18.3504 62.4277 19.171 60.0935 19.171H55.3852V13.9386ZM55.3852 5.59618H59.507C61.6713 5.59618 62.6333 6.27998 62.6333 7.8543C62.6333 9.25427 61.5674 10.0404 59.6445 10.007H55.3852V5.59618ZM49.4033 1.08203V23.8553H61.1205C63.9037 23.8553 65.726 23.3761 67.1706 22.1808C68.7526 20.9489 69.5415 19.2065 69.5415 17.0517C69.5415 14.3155 68.3036 12.4697 65.8288 11.5458L65.4522 11.409C67.4454 10.3838 68.4399 8.84607 68.4399 6.79362C68.4399 4.67539 67.3405 2.8641 65.4868 1.93913C64.3181 1.35868 62.7718 1.08203 60.3987 1.08203H49.4033Z" fill="#2B2B2A"/>
<path d="M37.0656 2.91685C37.0656 2.91685 37.7506 9.35504 37.6038 9.98978C37.6038 9.98978 37.4559 11.5484 39.81 17.1588C42.1631 22.7691 40.6419 18.9158 42.6026 23.3527L43.4849 24.6211L44.3693 17.5983C44.512 15.0614 44.4669 10.9137 44.4669 10.9137C44.6116 10.8166 45.1509 3.94099 45.0533 3.40334C44.9557 2.86778 45.0029 1.01368 45.0029 1.01368C37.8 0.720327 36.1812 1.306 36.1812 1.306C30.8886 0.963573 24.9571 0.963572 24.9571 0.963572C24.6151 2.18502 24.4168 3.99006 24.4682 4.57364C24.5165 5.16035 24.6151 6.03729 24.5165 7.54897C24.4168 9.06169 24.7588 13.4506 24.7588 13.4506L24.4168 13.3566C24.6634 17.4991 24.3203 23.8402 24.3203 23.8402H29.123C29.3674 23.5489 34.1229 12.037 34.1229 12.037C35.8392 8.52613 37.0656 2.91685 37.0656 2.91685ZM33.2406 14.9153L37.6499 13.8901L38.5364 14.72L38.0444 16.2808L33.2406 14.9153Z" fill="#2B2B2A"/>
</svg>
