<svg width="300" height="256" viewBox="0 0 300 256" fill="none" xmlns="http://www.w3.org/2000/svg">
<path d="M25.22 113.473C42.4652 95.3125 64.6129 82.5508 88.9729 76.7379L96.7483 74.8825C100.253 74.0461 101.272 69.55 98.4697 67.2846L5.30542 1.67156C2.98841 -0.201581 -0.418995 1.7639 0.0423837 4.70742L12.5322 116.687C13.0899 120.245 17.4882 121.615 19.9682 119.003L25.22 113.473Z" fill="black"/>
<path d="M24.8497 101.485C39.5163 86.0512 58.3465 75.2055 79.056 70.2637L87.2404 68.3107C88.045 68.1187 88.2819 67.0885 87.6419 66.5644L5.80428 6.67958C5.09207 6.09629 4.0367 6.70384 4.18345 7.61265L17.1342 107.273C17.2661 108.09 18.2763 108.402 18.8463 107.802L24.8497 101.485Z" fill="#ff4"/>
<path d="M84.8026 125.44C84.8026 120.327 88.9477 116.182 94.061 116.182H290.545C295.658 116.182 299.803 120.327 299.803 125.44V245.799C299.803 250.912 295.658 255.057 290.545 255.057H94.061C88.9477 255.057 84.8026 250.912 84.8026 245.799V125.44Z" fill="black"/>
<path d="M88.8026 125.666C88.8026 122.637 91.2579 120.182 94.2866 120.182H284.319C287.348 120.182 289.803 122.637 289.803 125.666V241.698C289.803 244.726 287.348 247.182 284.319 247.182H94.2866C91.2579 247.182 88.8026 244.726 88.8026 241.698V125.666Z" fill="#ff4"/>
<path d="M118.072 222.182V148.485H145.709C151.37 148.485 156.12 149.54 159.959 151.651C163.821 153.762 166.736 156.665 168.703 160.36C170.694 164.03 171.69 168.204 171.69 172.882C171.69 177.608 170.694 181.807 168.703 185.477C166.712 189.148 163.773 192.038 159.887 194.149C156 196.237 151.214 197.28 145.529 197.28H131.423V186.305H143.729C147.04 186.305 149.751 185.729 151.862 184.577C153.973 183.426 155.532 181.843 156.54 179.827C157.572 177.812 158.087 175.497 158.087 172.882C158.087 170.267 157.572 167.964 156.54 165.973C155.532 163.982 153.961 162.435 151.826 161.331C149.715 160.204 146.992 159.64 143.657 159.64H131.423V222.182H118.072Z" fill="black"/>
<path d="M206.028 223.261C200.63 223.261 195.952 222.074 191.994 219.699C188.036 217.324 184.965 214.001 182.782 209.731C180.623 205.461 179.543 200.471 179.543 194.761C179.543 189.052 180.623 184.05 182.782 179.755C184.965 175.461 188.036 172.127 191.994 169.752C195.952 167.377 200.63 166.189 206.028 166.189C211.426 166.189 216.104 167.377 220.062 169.752C224.021 172.127 227.079 175.461 229.238 179.755C231.421 184.05 232.513 189.052 232.513 194.761C232.513 200.471 231.421 205.461 229.238 209.731C227.079 214.001 224.021 217.324 220.062 219.699C216.104 222.074 211.426 223.261 206.028 223.261ZM206.1 212.826C209.027 212.826 211.474 212.022 213.441 210.415C215.408 208.783 216.872 206.6 217.831 203.865C218.815 201.13 219.307 198.084 219.307 194.725C219.307 191.343 218.815 188.284 217.831 185.549C216.872 182.79 215.408 180.595 213.441 178.964C211.474 177.333 209.027 176.517 206.1 176.517C203.101 176.517 200.606 177.333 198.615 178.964C196.648 180.595 195.173 182.79 194.189 185.549C193.23 188.284 192.75 191.343 192.75 194.725C192.75 198.084 193.23 201.13 194.189 203.865C195.173 206.6 196.648 208.783 198.615 210.415C200.606 212.022 203.101 212.826 206.1 212.826Z" fill="black"/>
<path d="M256.596 148.485V222.182H243.569V148.485H256.596Z" fill="black"/>
</svg>
